<?xml version="1.0" encoding="UTF-8"?>
<!DOCTYPE svg PUBLIC "-//W3C//DTD SVG 1.1//EN" "http://www.w3.org/Graphics/SVG/1.1/DTD/svg11.dtd">
<!-- Creator: CorelDRAW -->
<svg xmlns="http://www.w3.org/2000/svg" xml:space="preserve" width="75.6409mm" height="22.9523mm" version="1.1" style="shape-rendering:geometricPrecision; text-rendering:geometricPrecision; image-rendering:optimizeQuality; fill-rule:evenodd; clip-rule:evenodd"
viewBox="0 0 7545.35 2289.54"
 xmlns:xlink="http://www.w3.org/1999/xlink"
 xmlns:xodm="http://www.corel.com/coreldraw/odm/2003">
 <defs>
  <style type="text/css">
   <![CDATA[
    .str1 {stroke:#FEFEFE;stroke-width:19.95;stroke-miterlimit:22.9256}
    .str3 {stroke:#DAD3CF;stroke-width:19.95;stroke-miterlimit:22.9256}
    .str0 {stroke:#272743;stroke-width:7.6;stroke-miterlimit:22.9256}
    .str4 {stroke:#373435;stroke-width:0.64;stroke-miterlimit:22.9256}
    .str2 {stroke:#373435;stroke-width:0.66;stroke-miterlimit:22.9256}
    .fil5 {fill:none}
    .fil2 {fill:none;fill-rule:nonzero}
    .fil3 {fill:#FEFEFE}
    .fil1 {fill:#FEFEFE}
    .fil0 {fill:#DAD3CF}
    .fil6 {fill:#DAD3CF}
    .fil4 {fill:#FEFEFE;fill-rule:nonzero}
    .fil7 {fill:#FEFEFE;fill-rule:nonzero}
   ]]>
  </style>
 </defs>
 <g id="Layer_x0020_1">
  <metadata id="CorelCorpID_0Corel-Layer"/>
  <g id="_1801998246928">
   <path class="fil0" d="M272.49 1908.12c-13.27,-23.26 32.16,41.79 37.64,57.27 32.84,92.82 126.2,125.4 195.31,164.91 95.05,54.35 215.52,45.49 302.24,-27.98 8.34,-7.06 12.91,-12.34 20.2,-19.24 8.45,-8.01 12.81,-12.3 20.51,-21.72l16.77 -23.25c6.13,-8.81 10.71,-17.04 16.23,-26.74 75.78,-133.18 71.32,-292.24 6.13,-429.64 -21.38,-45.07 -50.69,-96.12 -81.85,-132.88 -23.1,-27.28 -43.97,-59.98 -69.77,-84.14l-60.57 -60.57c-118.87,-112.96 -108.96,-76.11 -246.44,-237.35 -37.98,-44.53 -69.3,-94.43 -99.13,-146.95 -22.91,-40.31 -43.02,-82.65 -59.96,-127.11 -34.37,-90.27 -53.68,-183.65 -53.68,-286.15 0,-103.28 31.05,-196.04 73.62,-274.2l33.13 -52.7c4.9,-6.57 7.46,-10.97 12.16,-17.23 64.05,-85.31 183.18,-150.85 285.25,-150.85 80.23,0 121.6,-5.44 190.9,37.02 30.44,18.66 61.2,42.82 85.97,70.81 51.95,58.69 91.49,126.03 117.44,205.62 6.42,19.7 11.62,39.76 15.65,60.04 1.96,9.83 8.16,36.12 8.58,38.55 -1.49,-10.24 -64.36,15.78 -66.41,5.68 -2.14,-10.52 -4.62,-20.97 -7.37,-31.22 -4.65,-17.28 13.07,-49.53 6.73,-65.42 -24.85,-62.48 -76.78,-120.37 -124.04,-161.78 -8.61,-7.55 -6.56,-20.74 -15.72,-27.95 -8.74,-6.88 -26.09,-10.42 -35.49,-17.03 -8.03,-5.62 -26.43,10.01 -34.46,6.1 -71.69,-34.77 -164.14,-28.55 -231.36,11.06 -33.77,19.9 -61.97,45.9 -88.4,76.56 -40.41,46.87 -94.49,156.69 -94.49,249.71 0,100.73 14.27,160.27 54.7,239.16 86.86,169.48 217.73,266.37 348.73,383.49 59.9,53.33 109.18,110.65 158.07,175.1 22.87,30.14 42.65,62.64 61.81,96.32 110.97,195.38 154.84,428.72 61.13,650.43 -34.01,80.46 -96.98,146.68 -160.12,197.13 -11.28,9.02 -24.35,4.19 -36.24,12.59 -44.06,31.1 -125.41,36.15 -177.19,36.15 -69.34,0 -79.84,25.79 -143.55,-0.57 -68.73,-28.43 -127.19,-87.28 -171.89,-153.15 -23.27,-34.28 -40.71,-69.94 -57.25,-110.25 -12.07,-29.42 -21.05,-60.18 -27.2,-91.75 -2.01,-10.29 8.89,12.67 13.69,4.12z"/>
   <path class="fil1" d="M214.22 414.71c-7.7,-7.21 75.43,-6.37 78.51,-16.62 5.19,-17.28 11.35,-34.04 18.41,-49.93 27.79,-62.48 67.64,-121.14 120.45,-162.56 9.63,-7.55 16.85,-12.98 27.09,-20.2 9.76,-6.88 18.41,-11.68 28.92,-18.28 8.98,-5.63 22.96,-11.2 31.94,-15.1 80.1,-34.77 183.41,-28.55 258.53,11.06 37.73,19.9 69.23,45.9 98.76,76.56 45.16,46.87 105.59,156.69 105.59,249.71 0,100.73 -15.95,160.27 -61.14,239.17 -43.22,75.47 -97.07,136.93 -156.12,196.62l-233.55 186.86c-66.93,53.33 -122,110.65 -176.63,175.1 -25.55,30.14 -47.66,62.63 -69.05,96.32 -124.01,195.38 -173.02,428.72 -68.31,650.43 38,80.46 96.33,149.16 166.9,199.62 12.62,9.02 24.43,14.95 37.72,23.35 49.23,31.09 129.02,52.72 186.88,52.72 77.49,0 115.13,-4.04 186.33,-30.39 76.81,-28.43 142.14,-87.28 192.07,-153.15 26.02,-34.28 45.49,-69.94 63.97,-110.25 13.48,-29.42 23.52,-60.18 30.39,-91.75 2.24,-10.29 -60.74,-45 -66.12,-53.54 14.83,-23.27 -16.51,48.39 -22.62,63.87 -36.7,92.81 -109.62,176.45 -186.86,215.96 -106.23,54.35 -240.83,45.49 -337.73,-27.98 -9.3,-7.06 -14.41,-12.34 -22.55,-19.24 -9.45,-8.01 -14.31,-12.3 -22.92,-21.72l-18.74 -23.25c-6.85,-8.81 -11.96,-17.04 -18.13,-26.74 -84.68,-133.18 -79.69,-292.24 -6.85,-429.64 23.89,-45.07 56.64,-96.12 91.46,-132.88 25.82,-27.28 49.13,-59.98 77.95,-84.14l67.68 -60.57c132.83,-112.96 121.76,-76.11 275.39,-237.35 42.43,-44.53 77.42,-94.44 110.76,-146.95 25.59,-40.31 48.08,-82.65 66.99,-127.11 38.41,-90.27 59.99,-183.65 59.99,-286.15 0,-103.28 -34.7,-196.04 -82.28,-274.2l-37.01 -52.7c-5.48,-6.57 -8.33,-10.97 -13.58,-17.23 -71.59,-85.31 -194.52,-162.44 -308.57,-162.44 -89.64,0 -146.06,6.15 -223.48,48.61 -34.04,18.66 -68.39,42.82 -96.07,70.81 -58.05,58.69 -102.22,126.03 -131.21,205.62 -7.18,19.7 -12.99,39.75 -17.5,60.04 -2.18,9.83 -12.45,22.53 -5.66,29.63z"/>
   <g>
    <path class="fil2 str0" d="M644.09 1769.83c-330.36,1.17 -597.91,49.37 -597.61,107.65 0.31,58.31 268.38,104.61 598.74,103.44 330.37,-1.16 597.92,-49.36 597.62,-107.64 -0.31,-58.3 -268.38,-104.6 -598.75,-103.45z"/>
   </g>
   <path class="fil3 str1" d="M644.49 1770.01c-330.39,1.14 -597.98,49.32 -597.68,107.6 0.3,58.29 268.38,104.62 598.78,103.48 330.39,-1.13 597.97,-49.31 597.68,-107.59 -0.31,-58.3 -268.38,-104.62 -598.78,-103.49z"/>
   <path class="fil0" d="M751.8 1811.51c0.45,0.67 0.41,0.5 1.23,0.84l7.64 2.86c0.54,0.21 0.99,0.34 1.51,0.57 0.64,0.26 0.91,0.41 1.61,0.64l2.99 1.13c0.45,0.19 0.93,0.39 1.47,0.6 0.64,0.25 1.1,0.29 1.7,0.56 0.54,0.25 0.88,0.48 1.4,0.67 1.17,0.45 3.8,1.08 4.48,2.09l-4.24 3.64c-0.8,0.54 -0.9,0.74 -1.55,1.27l-9.07 7.25c-2.46,2.01 -5.94,4.64 -8.18,6.64 -0.38,0.33 -0.47,0.33 -0.85,0.66l-9.05 7.29c-4.53,3.57 -8.94,7.4 -13.55,10.84 -2.41,1.81 -4.97,4.42 -7.38,6.11l-24.17 19.37c-0.58,0.56 -0.93,0.65 -1.5,1.14 -1.43,1.2 -2.93,2.67 -4.53,3.73 -1.59,1.07 -2.94,2.48 -4.43,3.64 -0.64,0.5 -0.98,0.72 -1.57,1.25l-3.06 2.36c-4,3.22 -2.78,3.4 -6.42,-0.28 -0.35,-0.36 -0.69,-0.53 -1.12,-0.96 -1.28,-1.29 -2.78,-2.99 -4.13,-4.12 -3.5,-2.93 -10.35,-10.15 -12.73,-12.05 -1.49,-1.19 -2.84,-2.97 -4.36,-4.27l-0.92 -0.78c-1.75,-1.61 -6.08,-6.13 -7.42,-7.2 -1.56,-1.25 -2.77,-2.65 -4.2,-4.06 -0.46,-0.47 -0.67,-0.54 -1.13,-0.94 -0.38,-0.34 -0.66,-0.66 -1.03,-1.03 -0.73,-0.73 -1.33,-1.43 -2.11,-2.02 -1.25,-0.95 -3.09,-2.86 -4.18,-4.07 -0.39,-0.45 -0.66,-0.49 -1.13,-0.95 -1.43,-1.37 -2.75,-2.92 -4.29,-4.15 -0.42,-0.33 -0.67,-0.63 -1.05,-1.02 -0.74,-0.74 -1.34,-1.33 -2.07,-2.06l-6.28 -6.09c-2.54,-2.09 -5.32,-5.88 -7.26,-5.88 -0.56,0 -2.04,1.58 -2.49,2.02 -0.4,0.4 -0.71,0.74 -1.12,1.12l-10.89 9.95c-0.51,0.53 -0.67,0.6 -1.21,1.04 -1.75,1.47 -4.27,4.2 -6.04,5.61 -0.74,0.59 -1.88,1.58 -2.46,2.22l-26.42 24.25c-0.5,0.44 -0.72,0.53 -1.22,1.03 -0.54,0.55 -0.78,0.67 -1.32,1.14 -1.63,1.44 -3.15,3.16 -4.79,4.59l-10.8 9.85c-0.54,0.45 -0.69,0.54 -1.21,1.05 -0.48,0.47 -0.73,0.55 -1.23,1.02 -2.39,2.28 -3.7,4.72 -3.7,8.69 0,6.04 5.13,10.69 11.07,10.7 1.88,0 4.18,-1.17 5.44,-1.89 1.24,-0.71 4.7,-4.02 5.97,-5.29l1.98 -1.79c1.32,-1.33 2.52,-2.35 3.85,-3.66l7.68 -7.14c0.2,-0.19 0.27,-0.26 0.48,-0.46l6.3 -5.89c1.02,-1.13 3.6,-3.18 4.86,-4.34 0.68,-0.63 1.2,-1.27 1.89,-1.88 0.43,-0.38 0.59,-0.42 1.03,-0.85l4.88 -4.51c0.35,-0.34 0.58,-0.61 0.94,-0.93 0.43,-0.4 0.61,-0.45 1.04,-0.85l14.43 -13.52c0.45,-0.42 0.61,-0.46 1.04,-0.84 0.84,-0.74 0.98,-1.18 2.02,-1.74 1.22,0.64 1.63,1.54 2.7,2.36l36.77 36.42c0.52,0.52 0.75,0.8 1.31,1.33l4.92 4.83c0.03,0.04 0.07,0.07 0.09,0.1l15.83 15.9c0.39,0.32 0.33,0.17 0.7,0.61l3.2 3.18c1.2,1.01 2.86,-0.89 4.68,-2.37 0.61,-0.49 0.71,-0.71 1.44,-1.19l35.36 -28.63c2.91,-2.55 6.51,-4.92 9.39,-7.5l18.82 -15.14c1.47,-1.15 3.02,-2.25 4.36,-3.52 0.52,-0.51 0.89,-0.7 1.48,-1.17l34.82 -28.03c0.88,-0.71 2.02,-2.01 3.16,-2.09 0.17,0.35 0.55,2.46 0.65,3.1l0.88 6.63c0.11,1.06 0.43,2.03 0.62,3.32l1.57 11.57c0.07,0.74 -0.2,1.46 0.6,1.46 1.06,0 2.43,-3.73 3.04,-4.65l7.47 -13.55c0.24,-0.46 0.41,-0.88 0.68,-1.38l6.19 -11.07c0.26,-0.48 0.39,-0.82 0.64,-1.25l23.54 -42.33c0.55,-0.91 0.99,-1.53 1.49,-2.45 0.6,-1.09 1.19,-1.39 0.88,-2.69 -1.88,0 -3.73,0.84 -5.52,1.43 -0.5,0.17 -0.87,0.31 -1.26,0.43l-16.31 4.9c-1.93,0.72 -7.61,2.06 -9.61,2.79l-5.3 1.64c-1.86,0.62 -3.62,1.01 -5.48,1.65l-5.33 1.62c-1,0.28 -1.76,0.52 -2.75,0.82l-32.61 9.6c-0.97,0.36 -1.93,0.45 -2.17,1.4z"/>
   <path class="fil0" d="M559.79 1834.04l0 20.27c0,0.44 0.31,0.75 0.75,0.75 0.44,0 5.33,-4.88 6.23,-5.77l7.13 -6.57c0.29,-0.26 0.47,-0.47 0.75,-0.75l3.14 -2.86c0.63,-0.48 1.07,-0.97 1.65,-1.55l4.7 -4.31c0.57,-0.56 1.01,-1.07 1.6,-1.6 0.38,-0.36 0.46,-0.36 0.83,-0.67 1.64,-1.37 3.03,-2.99 4.68,-4.34l0.57 -0.56c2.12,-2.1 4.65,-4.04 6.59,-5.98 1.74,-1.72 12.07,-11.49 12.81,-11.59 0.82,-0.11 2.64,2.21 3.32,2.86l5.28 5.06c0.47,0.49 0.63,0.5 1.11,0.95 1.06,0.98 2,2.18 3.13,3.07 1.96,1.52 3.53,3.48 5.31,5.2l13.86 13.17c0.77,0.6 1.5,1.43 2.19,2.12l6.32 6.05c0.48,0.42 0.48,0.64 0.99,1.08 0.48,0.41 0.64,0.46 1.13,0.95 2.83,2.84 5.62,5.41 8.44,8.26l12.77 12.2c4.05,3.39 3.45,5.65 8.05,1.6l4.68 -3.77c1.26,-1.03 3.49,-3.12 4.7,-3.93 1.14,-0.76 2.09,-1.66 3.13,-2.5l12.74 -10.16c5.17,-4.42 10.58,-8.55 15.87,-12.83l3.84 -3.1c2.31,-2.01 2.1,-0.52 2.1,-5.03 0,-2.58 -0.33,-5.1 -0.83,-7.61l-2.99 -9.58c-0.22,-0.55 -0.45,-0.93 -0.68,-1.39l-1.43 -2.87c-1.89,-3.54 -5.11,-8.07 -7.99,-10.98 -5.07,-5.12 -11.09,-9.36 -17.84,-12 -2.73,-1.08 -4.09,-1.27 -6.4,-2.05 -2.18,-0.74 -4.81,-1.07 -7.08,-1.36 -2.71,-0.32 -5.19,-0.4 -8.22,-0.4 -11.46,-0.01 -22.32,-0.2 -33.78,-0.2 -2.99,0 -5.35,0.19 -8.26,0.18 -10.05,0 -23.51,-0.69 -32.95,1.02 -2.37,0.42 -4.44,1.08 -6.64,1.8 -1.02,0.33 -2.09,0.72 -3.03,1.1 -2.06,0.83 -3.99,1.62 -5.88,2.76l-9.89 6.99c-3.07,2.44 -7.61,8.08 -9.57,11.83 -1.43,2.76 -3.1,5.44 -4.01,8.57 -0.31,1.08 -0.68,2.3 -1.05,3.27 -0.81,2.13 -0.95,4.74 -1.42,7.02 -0.44,2.11 -0.46,5.7 -0.46,8.18z"/>
   <g>
    <path class="fil4" d="M645.85 2018.53l0.04 8.08 0 0 -30.96 -0.04 -30.57 -0.32 -30.18 -0.61 -29.75 -0.88 -29.27 -1.15 -28.77 -1.41 -28.23 -1.67 -27.67 -1.92 -27.05 -2.15 -26.43 -2.39 -25.76 -2.62 -25.07 -2.84 -24.34 -3.06 -23.57 -3.27 -22.77 -3.49 -21.96 -3.67 -21.09 -3.88 -20.22 -4.06 -19.28 -4.24 -18.32 -4.42 -17.35 -4.6 -16.34 -4.75 -15.29 -4.92 -14.21 -5.09 -13.12 -5.23 -11.98 -5.4 -10.82 -5.55 -9.63 -5.7 -8.42 -5.89 -7.14 -6.06 -5.86 -6.25 -4.47 -6.48 9.06 -3.39 3.75 5.43 5.1 5.46 6.42 5.45 7.74 5.41 9.05 5.36 10.3 5.29 11.52 5.18 12.7 5.07 13.86 4.95 14.97 4.82 16.04 4.67 17.09 4.52 18.09 4.36 19.06 4.2 20 4.02 20.91 3.84 21.78 3.65 22.61 3.45 23.41 3.25 24.18 3.04 24.93 2.84 25.62 2.6 26.29 2.37 26.93 2.15 27.53 1.9 28.11 1.67 28.65 1.41 29.15 1.13 29.63 0.88 30.06 0.61 30.47 0.32 30.84 0.04 0 0zm634.78 -112.34l8.92 3.63 -4.73 6.39 -6.06 6.2 -7.34 6.03 -8.57 5.85 -9.77 5.69 -10.93 5.55 -12.06 5.4 -13.18 5.26 -14.25 5.11 -15.31 4.96 -16.33 4.81 -17.32 4.64 -18.29 4.48 -19.22 4.32 -20.13 4.15 -20.99 3.95 -21.85 3.79 -22.64 3.58 -23.43 3.39 -24.18 3.18 -24.89 2.98 -25.59 2.76 -26.24 2.53 -26.85 2.31 -27.45 2.06 -28.01 1.85 -28.54 1.59 -29.03 1.33 -29.51 1.08 -29.93 0.81 -30.33 0.53 -30.7 0.25 -0.04 -8.08 30.58 -0.25 30.21 -0.53 29.83 -0.81 29.39 -1.06 28.91 -1.33 28.42 -1.59 27.89 -1.83 27.31 -2.06 26.73 -2.29 26.11 -2.53 25.45 -2.74 24.75 -2.96 24.04 -3.16 23.27 -3.37 22.48 -3.56 21.67 -3.75 20.81 -3.93 19.93 -4.09 19 -4.28 18.06 -4.42 17.06 -4.58 16.05 -4.73 14.99 -4.84 13.92 -4.99 12.78 -5.1 11.62 -5.2 10.43 -5.29 9.19 -5.37 7.93 -5.41 6.64 -5.45 5.33 -5.45 4.01 -5.42z"/>
   </g>
   <path class="fil1" d="M595.4 1712.87c0,4.57 0.62,9.17 1.9,13.49 0.26,0.88 0.35,1.65 0.72,2.47 1.06,2.35 0.96,2.88 2.28,5.4 2.91,5.55 5.31,9.22 9.78,13.7 2.19,2.18 4.3,3.77 6.76,5.62 1.24,0.94 2.42,1.58 3.8,2.39 2.53,1.49 3.5,1.98 6.19,3 2.46,0.94 4.42,1.7 7.1,2.28 2.51,0.55 8.6,1.4 11.18,1.4 2.27,0 8.47,-0.94 10.83,-1.36 1.96,-0.36 4.93,-1.45 6.87,-2.14 1.96,-0.69 4.69,-1.83 6.34,-2.84 0.69,-0.41 1.24,-0.63 1.92,-1.09 0.72,-0.47 1.26,-0.78 1.96,-1.23l3.44 -2.56c3.15,-2.52 5.12,-4.55 7.56,-7.65l2.68 -3.51c1.99,-2.73 5.66,-10.35 6.35,-13.35l0.63 -2.56c1.61,-6.57 1.61,-11.76 0.93,-18.53 -0.09,-0.89 -0.31,-1.8 -0.48,-2.51 -0.25,-1 -0.38,-1.7 -0.61,-2.58 -0.65,-2.39 -1.52,-5.78 -2.74,-7.96 -0.29,-0.52 -0.31,-0.55 -0.52,-1.16 -0.57,-1.65 -3.61,-6.65 -4.57,-7.82l-1.99 -2.52c-0.3,-0.36 -0.52,-0.51 -0.83,-0.87l-3.01 -3.18c-0.54,-0.54 -0.94,-0.97 -1.5,-1.51l-5.3 -4.08c-2.62,-1.73 -4.92,-3 -8.01,-4.38 -4.25,-1.9 -10.16,-3.57 -14.7,-3.88 -1.61,-0.1 -4.4,-0.42 -5.67,-0.25 -2.89,0.39 -4.67,-0.1 -8.39,0.81 -0.82,0.2 -1.86,0.39 -2.64,0.55 -2.45,0.51 -6.86,1.94 -9.26,3.13 -2.67,1.36 -6.44,3.2 -8.71,5.19 -0.43,0.36 -0.4,0.29 -0.91,0.59l-6.5 5.89c-2.58,2.53 -6.02,7.65 -7.63,10.94 -0.2,0.39 -0.25,0.61 -0.46,1.04 -3.39,6.82 -4.82,13.95 -4.82,21.66z"/>
   <path class="fil1" d="M602.37 1601.19c-0.01,2.86 2.77,4.73 5.15,6.29l9.33 6.81c1.76,1.31 6.61,4.44 7.21,6.5 0.47,1.63 -0.29,3.89 -0.93,5.49 -0.27,0.67 -0.28,1.17 -0.48,1.77 -0.37,1.17 -0.9,2.18 -1.23,3.47l-2.73 8.71c-0.21,0.83 -0.42,1.05 -0.67,1.77 -0.8,2.27 -1.67,5.84 0.5,7.59 4.11,3.37 6.61,-0.51 10.55,-3.08l11.75 -8.52c4.05,-2.91 4.91,-3.01 10.45,1.18 0.92,0.69 1.8,1.28 2.75,1.95l6.95 5.06c0.59,0.43 0.86,0.63 1.39,1.05l4.17 2.97c2.47,1.55 6.93,-0.07 6.93,-4.51 0,-1.28 -2.49,-8.51 -3.24,-10.45 -0.45,-1.18 -0.67,-2.42 -1.09,-3.59 -0.89,-2.43 -3.3,-8.55 -2.88,-10.61 0.46,-2.33 2.37,-3.28 4.41,-4.8l13.26 -9.83c2.95,-1.8 5.63,-4.62 2.99,-8.12 -0.56,-0.75 -1.51,-1.26 -2.39,-1.55 -2.21,-0.69 -4.68,-0.21 -7.29,-0.21l-16.13 -0.01c-4.09,0 -4.36,-3.16 -5.29,-5.42 -0.5,-1.23 -0.89,-2.69 -1.36,-4.09l-3.29 -10.2c-0.35,-1.34 -1.72,-5.11 -2.32,-5.93 -2.03,-2.7 -5.72,-2.33 -7.18,-0.57 -0.81,0.98 -1.05,1.93 -1.58,3.11l-2.31 7.07c-0.37,1.26 -0.66,2.39 -1.12,3.57 -0.88,2.32 -1.01,3.67 -1.69,5.26 -0.27,0.63 -0.41,1.14 -0.63,1.81 -1.77,5.43 -2.55,5.38 -8.52,5.38 -2.97,0 -17.1,-0.16 -18.74,0.02 -2.7,0.3 -4.71,1.96 -4.71,4.67z"/>
   <path class="fil1" d="M717.39 1642.33l-16.14 -0.01c-1.9,0 -3.89,0.15 -5.13,0.87l-1.69 1.32c-1.19,1.77 -0.97,4.75 1.04,6.58l10.33 7.51c1.58,1.19 7.9,5.54 8.73,6.65 1.97,2.64 -0.17,6.16 -0.74,8.77l-3.69 11.52c-0.58,1.54 -1.5,4.27 -1.8,5.91 -0.5,2.64 2.13,5.49 4.37,5.49 2.49,0 6.53,-3.79 8.83,-5.45l2.83 -2.03c1.37,-1.02 10.32,-7.71 11.43,-7.71 2.78,0 4.79,1.71 6.96,3.35l12.4 9c1.45,0.97 2.71,2.47 5.4,2.48 1.33,0 4.13,-1.73 4.14,-4.51 0,-3.07 -0.8,-3.43 -1.62,-6.64 -0.28,-1.12 -2.5,-6.78 -2.93,-8.52l-1.91 -5.79c-1.39,-4.73 -0.85,-5.8 2.7,-8.33l14.88 -11c2.16,-1.78 3.31,-2.23 3.32,-5.51 0,-1.44 -1.73,-3.42 -3.66,-3.85 -1.35,-0.28 -20.4,-0.1 -22.61,-0.1 -1.91,0.02 -2.77,-0.36 -4.04,-1.58 -0.7,-0.67 -1.46,-3 -1.75,-3.89l-2.31 -7.06c-0.13,-0.41 -0.36,-0.94 -0.5,-1.39l-1.94 -5.77c-0.54,-1.66 -1.11,-4.21 -2.02,-5.48 -2.24,-3.13 -6.02,-2.3 -7.46,-0.7 -0.84,0.92 -1.97,4 -2.25,5.26 -0.28,1.24 -0.61,1.93 -0.96,2.97 -0.35,1.02 -0.5,1.89 -0.82,2.94 -0.26,0.85 -0.74,1.79 -1.01,2.74 -0.3,1.01 -0.49,2.11 -0.81,2.95 -0.26,0.66 -0.37,0.5 -0.59,1.29l-0.84 2.91c-0.19,0.57 -0.33,0.71 -0.55,1.34 -0.74,2.1 -1.72,3.43 -4.06,3.45 -0.88,0 -1.09,0.16 -1.69,0.16 -0.59,0 -0.97,-0.16 -1.88,-0.16z"/>
   <path class="fil1" d="M510.97 1647.91c0,2.62 2.33,4.11 3.92,5.28 0.46,0.34 0.89,0.6 1.34,0.91 0.43,0.31 0.84,0.64 1.28,0.97l8.13 5.77c0.46,0.34 0.85,0.67 1.3,0.96l1.38 1.07c3.72,2.82 5.55,3.06 3.94,8.59 -0.59,2.05 -0.09,0.94 -1.05,3.46 -1.09,2.91 -1.93,6.56 -3.12,9.45l-0.81 2.76c-0.43,1.52 -0.57,1.28 -1.18,3.52 -1.11,4.14 1.47,6.82 4.39,6.82 1.37,0 2.45,-0.76 3.29,-1.39 0.96,-0.73 1.8,-1.26 2.73,-1.97l13.76 -10.07c2.48,-1.9 4.55,-2.19 7.24,-0.27 0.91,0.65 1.82,1.24 2.73,1.96 1.86,1.46 3.67,2.64 5.5,4.08l4.12 3.01c0.62,0.42 0.79,0.71 1.34,1.1 0.52,0.36 0.79,0.56 1.29,0.96 0.51,0.41 0.96,0.59 1.49,0.97 2.11,1.53 3.89,2.38 6.65,0.17 2.37,-1.9 1.29,-4.85 0.79,-6.86 -0.27,-1.1 -0.64,-2 -1.01,-2.93 -0.66,-1.64 -2.14,-6.81 -2.92,-8.71 -0.41,-1.01 -0.68,-1.99 -1,-2.95 -2.17,-6.56 -2.95,-7.16 1.54,-10.79l15.2 -11.08c0.59,-0.44 0.97,-0.61 1.5,-1.12 2.08,-2.01 2.64,-4.95 0.48,-6.96 -2.3,-2.13 -9.03,-1.36 -12.72,-1.36 -3.13,-0.01 -6.25,-0.01 -9.39,-0.01 -5.04,0 -7.19,0.14 -8.59,-5.48 -0.34,-1.37 -0.83,-2.22 -1.19,-3.5l-2.25 -7.13c-0.18,-0.48 -0.45,-1.03 -0.64,-1.62l-1.65 -5.48c-2.08,-6.34 -8.58,-5.48 -9.97,0.04 -0.32,1.28 -0.76,2.27 -1.17,3.52l-1.13 3.57c-0.41,1.24 -0.74,2.29 -1.12,3.58l-2.32 7.05c-0.32,1.16 -0.83,2.29 -1.38,3.31 -1.3,2.42 -3.73,2.12 -7.26,2.12 -3.59,0 -16.32,-0.2 -18.76,0 -2.6,0.2 -4.7,2.23 -4.7,4.69z"/>
   <path class="fil1" d="M511.46 1647.91c0,2.61 2.33,4.11 3.91,5.28 0.46,0.34 0.89,0.59 1.35,0.91 0.43,0.31 0.83,0.64 1.28,0.97l8.13 5.77c0.46,0.34 0.85,0.67 1.3,0.96l1.38 1.06c3.72,2.83 5.54,3.07 3.94,8.6 -0.6,2.05 -0.1,0.94 -1.05,3.46 -1.1,2.91 -1.94,6.55 -3.13,9.45l-0.8 2.76c-0.44,1.52 -0.57,1.28 -1.18,3.52 -1.11,4.14 1.47,6.82 4.38,6.82 1.37,0 2.45,-0.76 3.3,-1.4 0.95,-0.73 1.8,-1.25 2.73,-1.96l13.76 -10.08c2.47,-1.89 4.55,-2.18 7.23,-0.26 0.91,0.65 1.83,1.24 2.74,1.96 1.85,1.46 3.66,2.64 5.49,4.08l4.12 3.01c0.63,0.42 0.81,0.7 1.35,1.09 0.51,0.37 0.79,0.57 1.29,0.97 0.5,0.4 0.95,0.58 1.48,0.96 2.11,1.54 3.89,2.39 6.65,0.18 2.38,-1.91 1.29,-4.85 0.8,-6.86 -0.27,-1.11 -0.64,-2 -1.02,-2.93 -0.65,-1.65 -2.14,-6.82 -2.91,-8.71 -0.42,-1.01 -0.68,-2 -1,-2.95 -2.17,-6.57 -2.96,-7.17 1.54,-10.8l15.2 -11.08c0.58,-0.43 0.97,-0.6 1.5,-1.12 2.08,-2 2.63,-4.94 0.47,-6.95 -2.28,-2.13 -9.02,-1.37 -12.72,-1.37 -3.12,0 -6.25,0 -9.38,0 -5.04,0 -7.19,0.14 -8.59,-5.48 -0.35,-1.37 -0.82,-2.22 -1.2,-3.5l-2.25 -7.13c-0.17,-0.48 -0.44,-1.03 -0.63,-1.62l-1.66 -5.48c-2.08,-6.34 -8.58,-5.48 -9.96,0.03 -0.32,1.29 -0.77,2.28 -1.18,3.53l-1.12 3.57c-0.42,1.24 -0.75,2.29 -1.12,3.57l-2.33 7.05c-0.31,1.17 -0.83,2.3 -1.37,3.32 -1.31,2.42 -3.72,2.12 -7.26,2.12 -3.59,0 -16.31,-0.21 -18.77,-0.01 -2.6,0.21 -4.68,2.24 -4.69,4.7z"/>
   <path class="fil5 str2" d="M585.73 635.4c-5.15,0 -7.2,3.24 -13.94,3.79 0,-18.04 1.7,-23.4 11.77,-22.56 13.15,-15.11 -5.48,-4.97 23.41,-30.76 3.64,-3.25 10.32,-8.16 15.1,-10.21 24.45,-10.51 39.32,-1.38 58,12.48 21.73,16.13 11.63,30.98 20.77,30.98 4.78,0 2.61,-0.35 7.82,-0.79 5.39,8.03 5.08,12.88 5.08,23.39 -9.95,0 -19.31,-7.12 -20.04,2.4 -0.57,7.53 10.54,25.7 -26.67,38.19 -15.25,5.13 -27.55,1.35 -45.4,10.32 -6.93,3.49 -10.81,8.02 -17.96,3.26 -5.67,-3.76 -10.18,-8.82 -12.74,-15.16 -2.74,-6.83 -3.89,-16.1 -3.08,-22.91 0.73,-6.12 3.97,-22.41 -2.12,-22.41zm57.05 -121.73c3.92,16.79 34.81,22.97 44.34,37.14l-10.06 22.2c-18.77,-9.9 -17.66,-11.02 -40.33,-11.02 -12.87,0 -16.19,6.5 -24.95,8.54 -1.42,-1.04 -13.69,-16.19 -14.63,-19.72 8.97,-13.34 35.75,-9.22 42.27,-37.14"/>
   <path class="fil6 str3" d="M585.82 635.71c-5.16,0 -7.2,3.24 -13.94,3.79 0,-18.04 1.69,-23.39 11.77,-22.56 13.15,-15.11 -5.48,-4.97 23.41,-30.75 3.64,-3.25 10.31,-8.16 15.1,-10.21 24.45,-10.51 39.33,-1.38 58,12.48 21.74,16.12 11.63,30.97 20.78,30.97 4.77,0 2.6,-0.35 7.81,-0.78 5.39,8.02 5.08,12.88 5.08,23.39 -9.94,0 -19.3,-7.13 -20.04,2.39 -0.57,7.54 10.54,25.69 -26.67,38.19 -15.24,5.12 -27.56,1.34 -45.41,10.31 -6.92,3.49 -10.81,8.03 -17.96,3.27 -5.66,-3.77 -10.18,-8.83 -12.74,-15.16 -2.74,-6.84 -3.89,-16.1 -3.07,-22.91 0.72,-6.12 3.97,-22.41 -2.12,-22.41zm57.05 -121.71c3.92,16.78 34.82,22.96 44.34,37.13l-10.06 22.2c-18.78,-9.9 -17.66,-11.02 -40.34,-11.02 -12.87,0 -16.19,6.5 -24.95,8.54 -1.43,-1.04 -13.7,-16.19 -14.63,-19.72 8.96,-13.34 35.75,-9.22 42.27,-37.13l3.36 0z"/>
   <path class="fil5 str4" d="M587.52 634.56c-5.04,0 -7.05,3.16 -13.64,3.71 0,-9.49 4.31,-10.83 4.96,-18.52 5.98,0.49 3.94,1.98 9.93,2.46 12.86,-14.78 -8.72,-10.88 19.54,-36.11 3.56,-3.18 10.1,-7.98 14.77,-10 23.93,-10.29 38.48,-1.36 56.76,12.21 21.26,15.78 11.58,32.66 20.53,32.66 4.67,0 2.34,-0.81 7.44,-1.23 5.27,7.84 4.96,10.7 4.96,21 -9.72,0 -18.88,-6.97 -19.59,2.35 -0.57,7.37 10.3,25.14 -26.11,37.37 -14.91,5.01 -26.97,1.3 -44.43,10.09 -6.77,3.41 -10.57,7.84 -17.58,3.18 -5.54,-3.68 -9.97,-8.62 -12.45,-14.83 -2.69,-6.68 -3.81,-15.74 -3.02,-22.4 0.72,-6.01 3.89,-21.95 -2.07,-21.95zm146.33 71.66c-20.16,-4.69 -18.59,-30.82 -18.59,-55.6 14.61,-3.88 9.64,-33.2 -2.13,-38.63 -4.62,-2.13 -5.26,-0.34 -7.3,-5.09 -3.94,-9.17 -1.7,-14.25 -20.33,-26.69 4.61,-19.71 9.66,-21.2 26.29,-25.7 32.25,-8.73 57.74,-6.88 78.82,-27.72 21.44,-21.19 15.03,-58.37 12.77,-87.48 -1.26,-16.06 2.77,-23.4 -29.84,-23.4l8.32 55.95c4.58,31.03 11.05,43.08 -10.75,42.93 -42.98,-0.29 -86.04,-0.05 -129.02,-0.05 3.84,16.41 35.33,23.2 44.64,37.06l-9.92 21.01c-18.38,-9.7 -17.49,-11.12 -39.68,-11.12 -12.6,0 -16.24,5.42 -24.8,7.4 -1.39,-1.01 -12.72,-13.84 -13.65,-17.29 8.77,-13.05 34.53,-9.75 40.93,-37.06l-109.13 0c-39.57,0 -32.42,5.85 -20.38,-75.9 1.16,-7.88 3.01,-15.26 3.01,-22.93 -37.02,0 -29.76,6.12 -29.76,69.18 0,61.92 51.92,58.76 89.72,68.75 5.29,1.4 15.87,4.42 19.36,6.65 1.66,1.05 10.97,12.61 12.45,14.79l-14.6 13.87c-5.05,5.04 -8.96,11.04 -8.96,20.72 -8.96,0 -10.65,2.3 -13.33,8.96 -6.21,15.44 -11.77,29.33 10.84,29.33 -5.41,8.06 -17.36,13.3 -17.36,38.3 0,22.78 13.9,39.87 29.74,46.98 5.25,2.34 9.76,1.97 14.64,3.93 7.81,3.12 32.43,42.76 93.79,0.26 8.35,-5.79 29.14,-23.87 34.2,-31.4z"/>
   <path class="fil1" d="M587.5 634.85c-5.05,0 -7.06,3.16 -13.64,3.71 0,-9.49 4.31,-10.83 4.96,-18.52 5.98,0.49 3.94,1.98 9.92,2.46 12.87,-14.78 -8.72,-10.88 19.55,-36.11 3.56,-3.18 10.09,-7.98 14.77,-10 23.92,-10.28 38.47,-1.36 56.75,12.21 21.27,15.77 11.59,32.66 20.53,32.66 4.68,0 2.35,-0.81 7.44,-1.23 5.28,7.84 4.97,10.7 4.97,21 -9.72,0 -18.88,-6.97 -19.6,2.35 -0.57,7.37 10.31,25.13 -26.11,37.36 -14.9,5.01 -26.96,1.3 -44.42,10.09 -6.78,3.41 -10.57,7.84 -17.58,3.18 -5.55,-3.68 -9.97,-8.62 -12.45,-14.83 -2.69,-6.68 -3.81,-15.74 -3.02,-22.4 0.71,-6 3.88,-21.94 -2.07,-21.94zm146.33 71.65c-20.16,-4.68 -18.6,-30.82 -18.6,-55.59 14.61,-3.88 9.65,-33.2 -2.12,-38.63 -4.62,-2.13 -5.26,-0.34 -7.3,-5.09 -3.95,-9.17 -1.71,-14.25 -20.34,-26.69 4.62,-19.7 9.66,-21.19 26.29,-25.69 32.25,-8.73 57.74,-6.89 78.82,-27.72 21.44,-21.19 15.03,-58.37 12.77,-87.48 -1.26,-16.05 2.76,-23.39 -29.84,-23.39l8.32 55.94c4.58,31.03 11.05,43.08 -10.74,42.93 -42.98,-0.29 -86.04,-0.06 -129.03,-0.06 3.85,16.41 35.33,23.2 44.65,37.07l-9.93 21c-18.38,-9.7 -17.48,-11.12 -39.67,-11.12 -12.6,0 -16.24,5.43 -24.81,7.41 -1.39,-1.01 -12.72,-13.85 -13.64,-17.29 8.77,-13.05 34.53,-9.76 40.92,-37.07l-109.13 0c-39.56,0 -32.41,5.86 -20.38,-75.88 1.17,-7.89 3.02,-15.27 3.02,-22.93 -37.03,0 -29.77,6.12 -29.77,69.17 0,61.92 51.93,58.75 89.73,68.75 5.29,1.4 15.87,4.42 19.36,6.65 1.65,1.05 10.97,12.6 12.45,14.77l-14.6 13.88c-5.05,5.04 -8.97,11.04 -8.97,20.72 -8.95,0 -10.65,2.3 -13.33,8.96 -6.2,15.44 -11.77,29.33 10.85,29.33 -5.42,8.05 -17.37,13.29 -17.37,38.29 0,22.78 13.91,39.87 29.75,46.97 5.25,2.34 9.76,1.98 14.64,3.93 7.81,3.12 32.43,42.76 93.78,0.27 8.36,-5.79 29.15,-23.87 34.21,-31.4z"/>
   <g>
    <path class="fil2 str0" d="M644.81 524.59c-330.37,-1.16 -597.93,-49.36 -597.62,-107.64 0.31,-58.29 268.38,-104.6 598.74,-103.45 330.36,1.18 597.92,49.37 597.61,107.66 -0.31,58.29 -268.37,104.6 -598.73,103.43z"/>
   </g>
   <path class="fil3 str1" d="M644.49 524.52c-330.39,-1.13 -597.98,-49.31 -597.68,-107.59 0.3,-58.29 268.38,-104.62 598.78,-103.49 330.39,1.14 597.97,49.31 597.68,107.6 -0.31,58.29 -268.38,104.62 -598.78,103.48z"/>
   <path class="fil0" d="M635.54 524.47c-49.48,-0.29 -97.5,-1.65 -143.35,-3.93 -5.42,-8.57 -8.62,-19.98 -8.62,-35.44 0,-63.15 -7.24,-69.3 29.65,-69.3 0,7.69 -1.86,15.08 -3.01,22.98 -11.99,81.88 -19.12,76.01 20.29,76.01l108.69 0c-0.88,3.77 -2.12,6.95 -3.64,9.68zm158.47 -2.75c-46.78,1.97 -95.78,2.93 -146.25,2.8 -3.03,-2.89 -5.26,-6.06 -6.1,-9.73 42.8,0 85.69,-0.23 128.49,0.05 21.72,0.15 15.26,-11.91 10.7,-42.99l-8.28 -56.05c32.47,0 28.46,7.36 29.72,23.45 2.07,26.92 7.68,60.73 -8.28,82.47z"/>
   <path class="fil0" d="M668.83 456.64c0,-28.4 -49.41,-29.84 -49.41,0 0,28.52 49.41,28.52 49.41,0z"/>
   <g>
    <path class="fil4" d="M646.11 268.11l-0.04 8.08 0 0 -30.84 0.04 -30.47 0.32 -30.07 0.61 -29.62 0.88 -29.16 1.13 -28.64 1.41 -28.11 1.67 -27.53 1.9 -26.94 2.15 -26.28 2.37 -25.63 2.6 -24.93 2.84 -24.18 3.04 -23.41 3.25 -22.61 3.45 -21.78 3.65 -20.91 3.84 -20 4.02 -19.06 4.2 -18.1 4.36 -17.09 4.52 -16.04 4.67 -14.96 4.82 -13.86 4.95 -12.72 5.07 -11.51 5.18 -10.29 5.29 -9.05 5.36 -7.74 5.41 -6.43 5.45 -5.1 5.46 -3.75 5.43 -9.06 -3.39 4.47 -6.48 5.86 -6.25 7.15 -6.06 8.42 -5.89 9.63 -5.7 10.81 -5.55 11.99 -5.4 13.12 -5.23 14.21 -5.09 15.28 -4.92 16.34 -4.75 17.35 -4.6 18.33 -4.42 19.28 -4.24 20.22 -4.06 21.09 -3.88 21.96 -3.67 22.77 -3.49 23.57 -3.27 24.34 -3.06 25.07 -2.84 25.77 -2.62 26.42 -2.39 27.06 -2.15 27.67 -1.92 28.23 -1.67 28.76 -1.41 29.28 -1.15 29.74 -0.88 30.19 -0.61 30.57 -0.32 30.96 -0.04 0 0zm643.64 116.8l-8.92 3.63 -4.01 -5.42 -5.33 -5.45 -6.64 -5.45 -7.93 -5.42 -9.19 -5.37 -10.42 -5.29 -11.63 -5.2 -12.78 -5.1 -13.91 -4.98 -14.99 -4.85 -16.05 -4.72 -17.07 -4.59 -18.05 -4.42 -19 -4.27 -19.93 -4.1 -20.81 -3.93 -21.67 -3.75 -22.48 -3.56 -23.27 -3.37 -24.04 -3.16 -24.75 -2.96 -25.45 -2.74 -26.1 -2.53 -26.72 -2.29 -27.33 -2.06 -27.88 -1.83 -28.42 -1.59 -28.92 -1.33 -29.38 -1.06 -29.83 -0.81 -30.21 -0.53 -30.58 -0.25 0.04 -8.08 30.7 0.25 30.33 0.53 29.93 0.81 29.5 1.08 29.04 1.33 28.54 1.59 28 1.85 27.45 2.06 26.86 2.31 26.23 2.53 25.59 2.76 24.89 2.98 24.18 3.18 23.43 3.39 22.64 3.58 21.85 3.79 20.99 3.95 20.13 4.16 19.22 4.31 18.28 4.48 17.33 4.65 16.33 4.8 15.31 4.97 14.24 5.1 13.18 5.26 12.07 5.4 10.92 5.55 9.77 5.69 8.57 5.86 7.34 6.03 6.06 6.2 4.73 6.39z"/>
   </g>
  </g>
  <path class="fil6" d="M1589.09 1745.75l0 -318.95 120.43 0c21.17,0 37.36,1.03 48.55,3.04 15.69,2.59 28.83,7.58 39.42,14.84 10.62,7.36 19.16,17.61 25.64,30.74 6.45,13.14 9.64,27.62 9.64,43.43 0,27.02 -8.61,49.97 -25.92,68.67 -17.22,18.77 -48.46,28.15 -93.62,28.15l-81.82 0 0 130.07 -42.32 0zm42.32 -167.49l82.42 0c27.31,0 46.61,-5.04 58.13,-15.23 11.44,-10.16 17.17,-24.41 17.17,-42.89 0,-13.29 -3.35,-24.72 -10.11,-34.24 -6.73,-9.5 -15.66,-15.8 -26.64,-18.84 -7.12,-1.85 -20.26,-2.83 -39.34,-2.83l-81.61 0 0 114.05zm407.6 92.65l40.55 5.35c-6.3,23.53 -18.12,41.88 -35.34,54.86 -17.22,13 -39.21,19.52 -66,19.52 -33.72,0 -60.45,-10.38 -80.18,-31.17 -19.76,-20.72 -29.64,-49.9 -29.64,-87.38 0,-38.74 9.95,-68.89 29.93,-90.28 19.97,-21.46 45.9,-32.16 77.74,-32.16 30.81,0 55.96,10.48 75.51,31.49 19.51,21 29.32,50.54 29.32,88.65 0,2.29 -0.09,5.78 -0.24,10.38l-172.16 0c1.49,25.32 8.61,44.77 21.53,58.22 12.86,13.43 28.97,20.19 48.2,20.19 14.31,0 26.57,-3.79 36.67,-11.36 10.16,-7.58 18.19,-19.66 24.12,-36.31zm-128.29 -62.79l128.75 0c-1.71,-19.45 -6.69,-34.01 -14.77,-43.74 -12.4,-15.06 -28.59,-22.63 -48.42,-22.63 -17.96,0 -33.04,6.02 -45.29,18.03 -12.16,12.04 -18.92,28.16 -20.27,48.35zm217.93 137.64l0 -231.19 35.17 0 0 35.39c8.99,-16.4 17.29,-27.23 24.94,-32.44 7.65,-5.26 16.04,-7.87 25.18,-7.87 13.22,0 26.66,4.18 40.31,12.4l-13.96 36.16c-9.5,-5.35 -18.99,-8.01 -28.51,-8.01 -8.54,0 -16.19,2.59 -22.95,7.72 -6.73,5.11 -11.58,12.26 -14.45,21.37 -4.39,13.89 -6.55,29.11 -6.55,45.69l0 120.78 -39.17 0zm133.18 -69.04l38.74 -6.25c2.16,15.53 8.25,27.4 18.2,35.72 9.95,8.23 23.9,12.4 41.72,12.4 18.04,0 31.39,-3.64 40.17,-10.98 8.68,-7.29 13.07,-15.9 13.07,-25.78 0,-8.83 -3.93,-15.8 -11.75,-20.86 -5.49,-3.48 -18.84,-7.87 -40.07,-13.29 -28.68,-7.19 -48.48,-13.43 -59.63,-18.7 -11.05,-5.35 -19.45,-12.64 -25.16,-21.99 -5.73,-9.29 -8.61,-19.59 -8.61,-30.88 0,-10.31 2.37,-19.81 7.05,-28.59 4.75,-8.75 11.12,-16.04 19.23,-21.82 6.06,-4.47 14.38,-8.25 24.87,-11.37 10.52,-3.11 21.75,-4.68 33.79,-4.68 18.11,0 34,2.61 47.64,7.87 13.75,5.21 23.84,12.32 30.38,21.25 6.44,8.99 10.98,20.93 13.43,35.92l-38.31 5.35c-1.71,-12.02 -6.74,-21.44 -15.06,-28.2 -8.32,-6.76 -20.05,-10.09 -35.27,-10.09 -17.89,0 -30.74,2.97 -38.39,8.9 -7.62,5.95 -11.48,12.92 -11.48,20.86 0,5.06 1.56,9.67 4.75,13.74 3.19,4.15 8.15,7.65 14.98,10.41 3.94,1.46 15.37,4.82 34.53,10.02 27.62,7.34 46.92,13.44 57.91,18.11 10.98,4.68 19.59,11.58 25.83,20.51 6.33,8.97 9.45,20.11 9.45,33.47 0,13 -3.79,25.26 -11.43,36.77 -7.65,11.48 -18.63,20.4 -32.98,26.7 -14.4,6.31 -30.66,9.43 -48.77,9.43 -30,0 -52.95,-6.23 -68.68,-18.63 -15.73,-12.47 -25.76,-30.88 -30.14,-55.29zm238.32 157.69l0 -319.84 35.64 0 0 30.35c8.39,-11.72 17.89,-20.57 28.51,-26.42 10.54,-5.87 23.37,-8.85 38.46,-8.85 19.75,0 37.12,5.07 52.2,15.23 15.05,10.09 26.42,24.43 34.15,42.82 7.65,18.49 11.51,38.68 11.51,60.74 0,23.55 -4.25,44.77 -12.71,63.71 -8.47,18.85 -20.8,33.33 -36.98,43.43 -16.09,10.02 -33.09,15.05 -50.93,15.05 -13.05,0 -24.8,-2.73 -35.1,-8.22 -10.4,-5.5 -18.85,-12.4 -25.54,-20.8l0 112.78 -39.21 0zm35.64 -202.84c0,29.61 6.02,51.52 17.98,65.7 12.02,14.19 26.57,21.32 43.64,21.32 17.39,0 32.23,-7.36 44.56,-22.06 12.4,-14.7 18.55,-37.41 18.55,-68.22 0,-29.4 -6.02,-51.39 -18.12,-66.02 -12.08,-14.62 -26.49,-21.9 -43.28,-21.9 -16.62,0 -31.31,7.79 -44.1,23.31 -12.83,15.58 -19.22,38.18 -19.22,67.86zm369.8 39.34l40.55 5.35c-6.31,23.53 -18.13,41.88 -35.35,54.86 -17.22,13 -39.2,19.52 -65.99,19.52 -33.72,0 -60.45,-10.38 -80.18,-31.17 -19.76,-20.72 -29.65,-49.9 -29.65,-87.38 0,-38.74 9.96,-68.89 29.93,-90.28 19.98,-21.46 45.9,-32.16 77.75,-32.16 30.81,0 55.96,10.48 75.5,31.49 19.52,21 29.33,50.54 29.33,88.65 0,2.29 -0.09,5.78 -0.24,10.38l-172.16 0c1.49,25.32 8.61,44.77 21.53,58.22 12.86,13.43 28.97,20.19 48.2,20.19 14.31,0 26.56,-3.79 36.66,-11.36 10.17,-7.58 18.2,-19.66 24.13,-36.31zm-128.29 -62.79l128.74 0c-1.7,-19.45 -6.68,-34.01 -14.76,-43.74 -12.4,-15.06 -28.59,-22.63 -48.42,-22.63 -17.96,0 -33.04,6.02 -45.3,18.03 -12.15,12.04 -18.91,28.16 -20.26,48.35zm369.37 52.99l38.29 5.35c-4.22,26.35 -14.91,46.93 -32.2,61.85 -17.32,14.93 -38.61,22.34 -63.79,22.34 -31.55,0 -56.95,-10.31 -76.1,-30.95 -19.23,-20.63 -28.8,-50.19 -28.8,-88.65 0,-24.94 4.14,-46.69 12.39,-65.4 8.25,-18.62 20.79,-32.68 37.73,-41.96 16.86,-9.36 35.19,-14.04 55.07,-14.04 25.04,0 45.59,6.31 61.49,19.02 15.97,12.68 26.2,30.73 30.66,54.05l-37.86 5.78c-3.65,-15.51 -10.03,-27.16 -19.31,-35.03 -9.21,-7.79 -20.35,-11.72 -33.42,-11.72 -19.74,0 -35.78,7.05 -48.18,21.15 -12.32,14.19 -18.48,36.45 -18.48,67.04 0,31.03 5.95,53.53 17.82,67.55 11.96,14.05 27.48,21.1 46.54,21.1 15.44,0 28.29,-4.68 38.53,-14.09 10.33,-9.38 16.86,-23.84 19.61,-43.38zm156.8 49.69l5.35 34.6c-10.98,2.29 -20.86,3.47 -29.47,3.47 -14.17,0 -25.18,-2.22 -33.05,-6.76 -7.79,-4.53 -13.29,-10.37 -16.47,-17.74 -3.19,-7.34 -4.75,-22.78 -4.75,-46.33l0 -133.18 -28.97 0 0 -30.28 28.97 0 0 -57.19 39.2 -23.52 0 80.71 39.18 0 0 30.28 -39.18 0 0 135.41c0,11.22 0.65,18.41 2.06,21.61 1.34,3.18 3.57,5.73 6.68,7.65 3.12,1.85 7.58,2.82 13.36,2.82 4.32,0 10.03,-0.53 17.08,-1.56zm38.67 -239.44l0 -44.55 39.21 0 0 44.55 -39.21 0zm0 274.4l0 -231.19 39.21 0 0 231.19 -39.21 0zm162.15 0l-87.23 -231.19 41.94 0 49.45 138.46c5.35,14.91 10.33,30.43 14.86,46.54 3.48,-12.18 8.3,-26.81 14.6,-43.95l51.39 -141.05 40.23 0 -87.52 231.19 -37.72 0zm317.24 -74.84l40.55 5.35c-6.3,23.53 -18.12,41.88 -35.34,54.86 -17.22,13 -39.21,19.52 -66,19.52 -33.71,0 -60.45,-10.38 -80.18,-31.17 -19.76,-20.72 -29.64,-49.9 -29.64,-87.38 0,-38.74 9.95,-68.89 29.93,-90.28 19.97,-21.46 45.9,-32.16 77.74,-32.16 30.81,0 55.97,10.48 75.51,31.49 19.51,21 29.33,50.54 29.33,88.65 0,2.29 -0.1,5.78 -0.24,10.38l-172.17 0c1.49,25.32 8.61,44.77 21.54,58.22 12.85,13.43 28.96,20.19 48.19,20.19 14.31,0 26.57,-3.79 36.67,-11.36 10.16,-7.58 18.19,-19.66 24.12,-36.31zm-128.29 -62.79l128.75 0c-1.71,-19.45 -6.69,-34.01 -14.77,-43.74 -12.4,-15.06 -28.58,-22.63 -48.41,-22.63 -17.97,0 -33.05,6.02 -45.3,18.03 -12.16,12.04 -18.92,28.16 -20.27,48.35zm346.12 137.64l0 -318.95 63.25 0 75.44 225.76c6.97,21.04 12.01,36.76 15.22,47.22 3.62,-11.58 9.35,-28.66 17.08,-51.15l76.75 -221.83 56.5 0 0 318.95 -40.53 0 0 -266.84 -93.11 266.84 -38.01 0 -92.05 -271.73 0 271.73 -40.55 0zm518.08 -28.97c-14.55,12.42 -28.58,21.1 -42.04,26.2 -13.43,5.14 -27.84,7.65 -43.28,7.65 -25.39,0 -44.91,-6.16 -58.57,-18.55 -13.65,-12.33 -20.48,-28.13 -20.48,-47.36 0,-11.29 2.59,-21.61 7.72,-30.95 5.21,-9.36 11.94,-16.79 20.26,-22.42 8.4,-5.66 17.75,-9.96 28.23,-12.85 7.72,-2 19.37,-3.94 34.88,-5.86 31.63,-3.72 55.01,-8.25 69.93,-13.46 0.17,-5.35 0.24,-8.75 0.24,-10.16 0,-15.9 -3.72,-27.09 -11.15,-33.64 -10.03,-8.83 -24.94,-13.22 -44.7,-13.22 -18.48,0 -32.13,3.28 -40.91,9.74 -8.82,6.45 -15.27,17.89 -19.51,34.36l-38.32 -5.33c3.5,-16.43 9.21,-29.71 17.25,-39.8 8,-10.09 19.58,-17.82 34.74,-23.31 15.05,-5.42 32.66,-8.18 52.56,-8.18 19.73,0 35.85,2.3 48.24,6.98 12.33,4.68 21.47,10.47 27.27,17.53 5.78,7.05 9.86,15.97 12.23,26.73 1.27,6.67 1.94,18.7 1.94,36l0 51.98c0,36.31 0.82,59.23 2.45,68.97 1.56,9.71 4.82,18.99 9.59,27.91l-41 0c-3.94,-8.25 -6.45,-17.9 -7.56,-28.97zm-3.11 -86.85c-14.27,5.78 -35.66,10.69 -64.15,14.7 -16.18,2.29 -27.62,4.89 -34.3,7.79 -6.69,2.9 -11.8,7.12 -15.45,12.61 -3.64,5.59 -5.49,11.75 -5.49,18.58 0,10.31 3.93,18.99 11.87,25.91 7.96,6.9 19.54,10.4 34.74,10.4 15.08,0 28.51,-3.29 40.33,-9.89 11.73,-6.54 20.41,-15.51 25.91,-26.87 4.24,-8.85 6.3,-21.83 6.3,-38.99l0.24 -14.24zm99.99 115.82l0 -318.95 39.2 0 0 181.67 92.66 -93.91 50.64 0 -88.22 85.9 97.11 145.29 -48.24 0 -76.78 -118.13 -27.17 26.42 0 91.7 -39.2 0zm380.29 -74.84l40.54 5.35c-6.3,23.53 -18.12,41.88 -35.34,54.86 -17.22,13 -39.2,19.52 -65.99,19.52 -33.72,0 -60.45,-10.38 -80.19,-31.17 -19.75,-20.72 -29.64,-49.9 -29.64,-87.38 0,-38.74 9.96,-68.89 29.93,-90.28 19.98,-21.46 45.9,-32.16 77.74,-32.16 30.81,0 55.97,10.48 75.51,31.49 19.52,21 29.33,50.54 29.33,88.65 0,2.29 -0.1,5.78 -0.24,10.38l-172.17 0c1.49,25.32 8.61,44.77 21.54,58.22 12.85,13.43 28.97,20.19 48.2,20.19 14.31,0 26.56,-3.79 36.66,-11.36 10.16,-7.58 18.2,-19.66 24.13,-36.31zm-128.29 -62.79l128.74 0c-1.7,-19.45 -6.68,-34.01 -14.77,-43.74 -12.39,-15.06 -28.58,-22.63 -48.41,-22.63 -17.96,0 -33.04,6.02 -45.3,18.03 -12.16,12.04 -18.91,28.16 -20.26,48.35zm202.77 68.6l38.75 -6.25c2.15,15.53 8.24,27.4 18.19,35.72 9.96,8.23 23.91,12.4 41.73,12.4 18.03,0 31.38,-3.64 40.16,-10.98 8.68,-7.29 13.07,-15.9 13.07,-25.78 0,-8.83 -3.93,-15.8 -11.75,-20.86 -5.49,-3.48 -18.84,-7.87 -40.06,-13.29 -28.68,-7.19 -48.49,-13.43 -59.64,-18.7 -11.05,-5.35 -19.44,-12.64 -25.15,-21.99 -5.74,-9.29 -8.61,-19.59 -8.61,-30.88 0,-10.31 2.37,-19.81 7.04,-28.59 4.75,-8.75 11.13,-16.04 19.23,-21.82 6.06,-4.47 14.39,-8.25 24.87,-11.37 10.52,-3.11 21.75,-4.68 33.79,-4.68 18.11,0 34.01,2.61 47.64,7.87 13.75,5.21 23.84,12.32 30.38,21.25 6.45,8.99 10.98,20.93 13.43,35.92l-38.31 5.35c-1.71,-12.02 -6.74,-21.44 -15.06,-28.2 -8.32,-6.76 -20.04,-10.09 -35.27,-10.09 -17.89,0 -30.73,2.97 -38.38,8.9 -7.63,5.95 -11.49,12.92 -11.49,20.86 0,5.06 1.57,9.67 4.75,13.74 3.19,4.15 8.16,7.65 14.99,10.41 3.93,1.46 15.36,4.82 34.52,10.02 27.62,7.34 46.93,13.44 57.91,18.11 10.98,4.68 19.59,11.58 25.83,20.51 6.33,8.97 9.46,20.11 9.46,33.47 0,13 -3.79,25.26 -11.44,36.77 -7.65,11.48 -18.63,20.4 -32.97,26.7 -14.41,6.31 -30.67,9.43 -48.78,9.43 -30,0 -52.95,-6.23 -68.67,-18.63 -15.73,-12.47 -25.76,-30.88 -30.15,-55.29zm366.97 69.04l0 -318.95 120.43 0c21.17,0 37.36,1.03 48.55,3.04 15.69,2.59 28.83,7.58 39.42,14.84 10.62,7.36 19.16,17.61 25.64,30.74 6.45,13.14 9.64,27.62 9.64,43.43 0,27.02 -8.61,49.97 -25.92,68.67 -17.22,18.77 -48.46,28.15 -93.62,28.15l-81.82 0 0 130.07 -42.32 0zm42.32 -167.49l82.42 0c27.31,0 46.61,-5.04 58.13,-15.23 11.44,-10.16 17.17,-24.41 17.17,-42.89 0,-13.29 -3.35,-24.72 -10.11,-34.24 -6.74,-9.5 -15.66,-15.8 -26.64,-18.84 -7.12,-1.85 -20.26,-2.83 -39.34,-2.83l-81.61 0 0 114.05zm407.6 92.65l40.55 5.35c-6.3,23.53 -18.12,41.88 -35.34,54.86 -17.22,13 -39.21,19.52 -66,19.52 -33.72,0 -60.45,-10.38 -80.18,-31.17 -19.76,-20.72 -29.64,-49.9 -29.64,-87.38 0,-38.74 9.95,-68.89 29.93,-90.28 19.97,-21.46 45.89,-32.16 77.74,-32.16 30.81,0 55.96,10.48 75.51,31.49 19.51,21 29.32,50.54 29.32,88.65 0,2.29 -0.09,5.78 -0.24,10.38l-172.16 0c1.49,25.32 8.61,44.77 21.53,58.22 12.86,13.43 28.97,20.19 48.2,20.19 14.31,0 26.57,-3.79 36.67,-11.36 10.16,-7.58 18.19,-19.66 24.12,-36.31zm-128.29 -62.79l128.75 0c-1.71,-19.45 -6.69,-34.01 -14.77,-43.74 -12.4,-15.06 -28.59,-22.63 -48.42,-22.63 -17.96,0 -33.04,6.02 -45.29,18.03 -12.16,12.04 -18.92,28.16 -20.27,48.35zm217.93 137.64l0 -231.19 35.17 0 0 35.39c8.99,-16.4 17.29,-27.23 24.94,-32.44 7.65,-5.26 16.04,-7.87 25.18,-7.87 13.22,0 26.66,4.18 40.31,12.4l-13.96 36.16c-9.5,-5.35 -18.99,-8.01 -28.51,-8.01 -8.54,0 -16.19,2.59 -22.95,7.72 -6.73,5.11 -11.58,12.26 -14.45,21.37 -4.39,13.89 -6.55,29.11 -6.55,45.69l0 120.78 -39.17 0zm299.78 -84.65l38.29 5.35c-4.22,26.35 -14.91,46.93 -32.2,61.85 -17.32,14.93 -38.6,22.34 -63.78,22.34 -31.56,0 -56.95,-10.31 -76.11,-30.95 -19.23,-20.63 -28.8,-50.19 -28.8,-88.65 0,-24.94 4.15,-46.69 12.4,-65.4 8.25,-18.62 20.79,-32.68 37.72,-41.96 16.86,-9.36 35.2,-14.04 55.08,-14.04 25.03,0 45.58,6.31 61.48,19.02 15.97,12.68 26.21,30.73 30.67,54.05l-37.87 5.78c-3.64,-15.51 -10.03,-27.16 -19.3,-35.03 -9.21,-7.79 -20.36,-11.72 -33.43,-11.72 -19.73,0 -35.78,7.05 -48.17,21.15 -12.33,14.19 -18.49,36.45 -18.49,67.04 0,31.03 5.95,53.53 17.82,67.55 11.97,14.05 27.48,21.1 46.54,21.1 15.44,0 28.3,-4.68 38.53,-14.09 10.33,-9.38 16.86,-23.84 19.61,-43.38zm229.41 9.81l40.55 5.35c-6.3,23.53 -18.12,41.88 -35.34,54.86 -17.22,13 -39.21,19.52 -66,19.52 -33.71,0 -60.45,-10.38 -80.18,-31.17 -19.76,-20.72 -29.64,-49.9 -29.64,-87.38 0,-38.74 9.95,-68.89 29.93,-90.28 19.97,-21.46 45.9,-32.16 77.74,-32.16 30.81,0 55.97,10.48 75.51,31.49 19.51,21 29.33,50.54 29.33,88.65 0,2.29 -0.1,5.78 -0.24,10.38l-172.17 0c1.49,25.32 8.61,44.77 21.54,58.22 12.85,13.43 28.96,20.19 48.19,20.19 14.31,0 26.57,-3.79 36.67,-11.36 10.16,-7.58 18.19,-19.66 24.12,-36.31zm-128.29 -62.79l128.75 0c-1.71,-19.45 -6.69,-34.01 -14.77,-43.74 -12.4,-15.06 -28.58,-22.63 -48.41,-22.63 -17.97,0 -33.05,6.02 -45.3,18.03 -12.16,12.04 -18.92,28.16 -20.27,48.35zm218.36 226.29l0 -319.84 35.63 0 0 30.35c8.39,-11.72 17.89,-20.57 28.51,-26.42 10.55,-5.87 23.38,-8.85 38.46,-8.85 19.76,0 37.12,5.07 52.2,15.23 15.06,10.09 26.42,24.43 34.15,42.82 7.65,18.49 11.51,38.68 11.51,60.74 0,23.55 -4.24,44.77 -12.71,63.71 -8.46,18.85 -20.79,33.33 -36.98,43.43 -16.09,10.02 -33.09,15.05 -50.92,15.05 -13.05,0 -24.8,-2.73 -35.11,-8.22 -10.4,-5.5 -18.84,-12.4 -25.54,-20.8l0 112.78 -39.2 0zm35.63 -202.84c0,29.61 6.02,51.52 17.99,65.7 12.01,14.19 26.56,21.32 43.64,21.32 17.39,0 32.23,-7.36 44.55,-22.06 12.4,-14.7 18.56,-37.41 18.56,-68.22 0,-29.4 -6.02,-51.39 -18.12,-66.02 -12.09,-14.62 -26.5,-21.9 -43.28,-21.9 -16.62,0 -31.32,7.79 -44.1,23.31 -12.83,15.58 -19.23,38.18 -19.23,67.86zm297.19 79.22l5.35 34.6c-10.97,2.29 -20.86,3.47 -29.47,3.47 -14.17,0 -25.18,-2.22 -33.04,-6.76 -7.8,-4.53 -13.29,-10.37 -16.48,-17.74 -3.19,-7.34 -4.75,-22.78 -4.75,-46.33l0 -133.18 -28.97 0 0 -30.28 28.97 0 0 -57.19 39.21 -23.52 0 80.71 39.17 0 0 30.28 -39.17 0 0 135.41c0,11.22 0.64,18.41 2.05,21.61 1.35,3.18 3.57,5.73 6.69,7.65 3.11,1.85 7.58,2.82 13.36,2.82 4.32,0 10.03,-0.53 17.07,-1.56zm38.68 -239.44l0 -44.55 39.2 0 0 44.55 -39.2 0zm0 274.4l0 -231.19 39.2 0 0 231.19 -39.2 0zm84.26 -115.6c0,-42.68 11.87,-74.32 35.7,-94.88 19.83,-17.08 44.1,-25.62 72.68,-25.62 31.73,0 57.7,10.41 77.89,31.2 20.12,20.69 30.21,49.45 30.21,86.04 0,29.71 -4.44,53.02 -13.36,70.02 -8.9,17 -21.9,30.21 -38.96,39.64 -17.01,9.42 -35.63,14.09 -55.78,14.09 -32.34,0 -58.48,-10.31 -78.46,-31.02 -19.97,-20.72 -29.93,-50.55 -29.93,-89.47zm40.09 0.07c0,29.57 6.45,51.67 19.38,66.31 12.99,14.69 29.25,22.06 48.91,22.06 19.47,0 35.66,-7.36 48.63,-22.14 12.93,-14.76 19.4,-37.26 19.4,-67.47 0,-28.51 -6.54,-50.12 -19.54,-64.74 -13,-14.7 -29.19,-22.07 -48.49,-22.07 -19.66,0 -35.92,7.29 -48.91,21.92 -12.93,14.63 -19.38,36.67 -19.38,66.14zm222.36 115.53l0 -231.19 35.2 0 0 32.81c16.93,-25.18 41.41,-37.73 73.43,-37.73 13.96,0 26.7,2.52 38.36,7.51 11.67,4.96 20.43,11.58 26.2,19.66 5.81,8.1 9.89,17.75 12.18,28.9 1.42,7.26 2.16,19.97 2.16,38.08l0 141.96 -39.21 0 0 -140.47c0,-15.97 -1.49,-27.91 -4.53,-35.78 -3.04,-7.86 -8.47,-14.19 -16.19,-18.94 -7.72,-4.67 -16.83,-7.04 -27.23,-7.04 -16.62,0 -30.96,5.28 -43.07,15.89 -12.08,10.53 -18.11,30.65 -18.11,60.21l0 126.14 -39.2 0z"/>
  <g id="_1801998186688">
   <path class="fil7" d="M1860.48 1259.11c-55.92,0 -103.87,-7.6 -143.91,-22.76 -39.98,-15.14 -70.55,-36.98 -91.43,-65.62 -20.87,-28.5 -31.32,-62.87 -31.32,-103.37l0 -421.04c0,-40.31 10.45,-74.88 31.32,-103.72 20.88,-28.67 51.45,-50.48 91.43,-65.28 40.04,-14.79 87.99,-22.18 143.91,-22.18 56.16,0 104.36,7.39 144.12,22.18 39.76,14.79 70.1,36.61 91.21,65.28 21.1,28.84 31.82,63.41 31.82,103.72l0 421.04c0,40.5 -10.72,74.87 -31.82,103.37 -21.12,28.64 -51.45,50.47 -91.21,65.62 -39.76,15.16 -87.96,22.76 -144.12,22.76zm0 -117.6c22.12,0 41.5,-3.15 57.41,-9.43 15.91,-6.3 28.07,-15.54 36.51,-27.55 8.21,-12.21 12.18,-26.83 12.18,-44.21l0 -407.34c0,-17.03 -3.97,-31.62 -12.18,-43.65 -8.44,-12.19 -20.6,-21.25 -36.51,-27.73 -15.91,-6.27 -35.29,-9.43 -57.41,-9.43 -22.39,0 -41.51,3.15 -57.19,9.43 -15.86,6.48 -27.82,15.54 -36.01,27.73 -8.44,12.03 -12.41,26.62 -12.41,43.65l0 407.34c0,17.38 3.97,32 12.41,44.21 8.19,12.01 20.15,21.25 36.01,27.55 15.68,6.27 34.79,9.43 57.19,9.43zm934.11 -678.25l145.64 0 0 787.7 -144.13 0 0 -573.22 11.67 34.77 -167.48 404.02 -89.73 0 -167.25 -393.29 15.19 -45.5 0 573.22 -147.88 0 0 -787.7 150.12 0 194.34 460.97 199.52 -460.97zm434.66 787.7l-159.54 0 0 -787.7 159.54 0 0 787.7zm129.46 -787.7l131.24 0 269.37 564.52 -21.15 17.93 0 -582.44 148.37 0 0 787.15 -133.18 0 -267.17 -540.13 21.13 -17.92 0 558.04 -148.62 0 0 -787.15zm817.11 787.7l-159.54 0 0 -787.7 159.54 0 0 787.7zm379.97 8.14c-55.42,0 -102.41,-7.4 -141.68,-22.19 -38.98,-14.79 -68.8,-36.43 -89.17,-64.73 -20.38,-28.47 -30.6,-62.86 -30.6,-103.17l0 -40.68 158.82 -0.55 0 39.02c0,24.22 8.94,42.88 26.8,56.39 18.17,13.3 43.29,19.98 75.83,19.98 31.56,0 55.91,-6.68 73.29,-19.81 17.18,-13.11 25.87,-31.79 25.87,-56.01l0 -68.78c0,-17.03 -5.99,-31.45 -17.9,-43.46 -11.94,-11.84 -26.86,-21.82 -44.73,-29.96 -18.14,-8.14 -42.76,-17.75 -74.31,-29.04 -1.5,-0.35 -2.98,-0.72 -4.47,-1.29 -1.5,-0.55 -2.98,-1.1 -4.22,-1.47l-9.49 -3.15c-42.22,-15.16 -77.24,-30.33 -105.33,-45.5 -27.85,-15.16 -51.43,-35.86 -70.58,-61.75 -19.14,-26.07 -28.82,-58.62 -28.82,-97.65l0 -43.25c0,-39.39 10.17,-73.05 30.32,-100.97 20.11,-28.1 49.7,-49.37 88.46,-63.96 38.76,-14.62 85.73,-22.02 140.4,-22.02 53.94,0 99.9,7.39 137.65,22.02 37.81,14.59 66.86,36.04 86.74,64.53 19.88,28.3 29.82,62.49 29.82,102.63l0 42.69 -159.54 1.12 0 -41.23c0,-24.42 -8.17,-43.26 -24.35,-56.59 -16.16,-13.13 -39.76,-19.78 -70.32,-19.78 -32.06,0 -56.69,6.28 -73.81,18.49 -17.16,12.21 -25.85,29.59 -25.85,51.95l0 51.05c0,17.17 5.72,31.96 17.16,44.37 11.41,12.19 25.81,22.19 43.23,29.97 17.38,7.74 41.5,17.17 72.05,27.89 4.49,1.5 8.71,2.98 12.68,4.65 4.22,1.66 8.69,3.12 13.68,4.61 1.22,0.75 3,1.3 4.75,1.84 1.46,0.58 3.45,1.32 5.46,2.03 41.23,14.79 74.29,28.67 99.62,42 25.37,13.14 46.73,31.8 64.39,56.19 17.89,24.43 26.57,56.05 26.57,94.69l0 68.77c0,40.31 -9.93,74.7 -30.08,103.17 -20.11,28.3 -49.69,49.94 -88.19,64.73 -38.54,14.79 -85.28,22.19 -140.17,22.19zm613.07 0c-52.45,0 -97.17,-7.97 -134.7,-23.85 -37.26,-15.91 -65.85,-38.84 -85.46,-68.8 -19.66,-29.97 -29.59,-66 -29.59,-108.34l0 -402c0,-42.15 9.93,-78.39 29.59,-108.54 19.61,-30.13 48.2,-53.06 85.46,-68.77 37.53,-15.71 82.25,-23.68 134.7,-23.68 52.94,0 98.16,7.97 135.46,23.68 37.53,15.71 65.85,38.64 85.45,68.77 19.66,30.16 29.59,66.4 29.59,108.54l0 48.82 -161.55 0 0 -48.82c0,-17.38 -3.45,-32.17 -10.15,-44.55 -6.97,-12.59 -16.93,-22.02 -30.32,-28.47 -13.41,-6.48 -29.56,-9.81 -48.47,-9.81 -18.37,0 -34.04,3.32 -47.21,9.81 -13.18,6.45 -23.1,15.88 -30.3,28.47 -6.97,12.38 -10.44,27.17 -10.44,44.55l0 402c0,17.38 3.47,32.17 10.44,44.38 7.2,12.38 17.13,21.62 30.3,28.27 13.18,6.47 28.84,9.63 47.21,9.63 18.91,0 35.06,-3.15 48.47,-9.63 13.4,-6.65 23.35,-15.89 30.32,-28.27 6.7,-12.21 10.15,-27.2 10.15,-44.95l0 -48.25 161.55 0 0 48.25c0,42.33 -9.93,78.41 -29.59,108.73 -19.6,30.14 -47.92,53.07 -85.45,68.98 -37.31,15.88 -82.52,23.85 -135.46,23.85zm510.46 -8.14l-159.54 0 0 -787.7 159.54 0 0 787.7zm129.46 -787.7l159.53 0 0 787.7 -159.53 0 0 -787.7zm75.77 673.43l386.71 0 0 114.28 -386.71 0 0 -114.28zm0 -334.32l350.15 0 0 114.28 -350.15 0 0 -114.28zm0 -339.11l386.71 0 0 114.27 -386.71 0 0 -114.27zm487.86 0l131.21 0 269.39 564.52 -21.15 17.93 0 -582.44 148.37 0 0 787.15 -133.2 0 -267.16 -540.13 21.12 -17.92 0 558.04 -148.59 0 0 -787.15zm832.24 65.08l159.26 0 0 722.62 -159.26 0 0 -722.62zm-181.43 -65.08l522.13 0 0 113.35 -522.13 0 0 -113.35z"/>
   <path class="fil7" d="M1860.48 1259.11c-55.92,0 -103.87,-7.6 -143.91,-22.76 -39.98,-15.14 -70.55,-36.98 -91.43,-65.62 -20.87,-28.5 -31.32,-62.87 -31.32,-103.37l0 -421.04c0,-40.31 10.45,-74.88 31.32,-103.72 20.88,-28.67 51.45,-50.48 91.43,-65.28 40.04,-14.79 87.99,-22.18 143.91,-22.18 56.16,0 104.36,7.39 144.12,22.18 39.76,14.79 70.1,36.61 91.21,65.28 21.1,28.84 31.82,63.41 31.82,103.72l0 421.04c0,40.5 -10.72,74.87 -31.82,103.37 -21.12,28.64 -51.45,50.47 -91.21,65.62 -39.76,15.16 -87.96,22.76 -144.12,22.76zm0 -117.6c22.12,0 41.5,-3.15 57.41,-9.43 15.91,-6.3 28.07,-15.54 36.51,-27.55 8.21,-12.21 12.18,-26.83 12.18,-44.21l0 -407.34c0,-17.03 -3.97,-31.62 -12.18,-43.65 -8.44,-12.19 -20.6,-21.25 -36.51,-27.73 -15.91,-6.27 -35.29,-9.43 -57.41,-9.43 -22.39,0 -41.51,3.15 -57.19,9.43 -15.86,6.48 -27.82,15.54 -36.01,27.73 -8.44,12.03 -12.41,26.62 -12.41,43.65l0 407.34c0,17.38 3.97,32 12.41,44.21 8.19,12.01 20.15,21.25 36.01,27.55 15.68,6.27 34.79,9.43 57.19,9.43zm934.11 -678.25l145.64 0 0 787.7 -144.13 0 0 -573.22 11.67 34.77 -167.48 404.02 -89.73 0 -167.25 -393.29 15.19 -45.5 0 573.22 -147.88 0 0 -787.7 150.12 0 194.34 460.97 199.52 -460.97zm434.66 787.7l-159.54 0 0 -787.7 159.54 0 0 787.7zm129.46 -787.7l131.24 0 269.37 564.52 -21.15 17.93 0 -582.44 148.37 0 0 787.15 -133.18 0 -267.17 -540.13 21.13 -17.92 0 558.04 -148.62 0 0 -787.15zm817.11 787.7l-159.54 0 0 -787.7 159.54 0 0 787.7zm379.97 8.14c-55.42,0 -102.41,-7.4 -141.68,-22.19 -38.99,-14.79 -68.8,-36.43 -89.17,-64.73 -20.38,-28.47 -30.6,-62.86 -30.6,-103.17l0 -40.68 158.82 -0.55 0 39.02c0,24.22 8.94,42.88 26.8,56.39 18.17,13.3 43.29,19.98 75.83,19.98 31.56,0 55.91,-6.68 73.29,-19.81 17.18,-13.11 25.87,-31.79 25.87,-56.01l0 -68.78c0,-17.03 -5.99,-31.45 -17.9,-43.46 -11.94,-11.84 -26.86,-21.82 -44.73,-29.96 -18.14,-8.14 -42.76,-17.75 -74.31,-29.04 -1.5,-0.35 -2.98,-0.72 -4.47,-1.29 -1.5,-0.55 -2.98,-1.1 -4.22,-1.47l-9.49 -3.15c-42.22,-15.16 -77.24,-30.33 -105.33,-45.5 -27.85,-15.16 -51.43,-35.86 -70.58,-61.75 -19.14,-26.07 -28.82,-58.62 -28.82,-97.65l0 -43.25c0,-39.39 10.17,-73.05 30.32,-100.97 20.11,-28.1 49.69,-49.37 88.46,-63.96 38.76,-14.62 85.73,-22.02 140.4,-22.02 53.94,0 99.9,7.39 137.65,22.02 37.81,14.59 66.86,36.04 86.74,64.53 19.88,28.3 29.82,62.49 29.82,102.63l0 42.69 -159.54 1.12 0 -41.23c0,-24.42 -8.17,-43.26 -24.35,-56.59 -16.16,-13.13 -39.76,-19.78 -70.32,-19.78 -32.06,0 -56.69,6.28 -73.81,18.49 -17.16,12.21 -25.85,29.59 -25.85,51.95l0 51.05c0,17.17 5.72,31.96 17.16,44.37 11.41,12.19 25.81,22.19 43.23,29.97 17.38,7.74 41.5,17.17 72.05,27.89 4.49,1.5 8.71,2.98 12.68,4.65 4.22,1.66 8.69,3.12 13.68,4.61 1.22,0.75 3,1.3 4.75,1.84 1.46,0.58 3.45,1.32 5.46,2.03 41.23,14.79 74.29,28.67 99.62,42 25.37,13.14 46.73,31.8 64.39,56.19 17.89,24.43 26.57,56.05 26.57,94.69l0 68.77c0,40.31 -9.93,74.7 -30.08,103.17 -20.11,28.3 -49.69,49.94 -88.19,64.73 -38.54,14.79 -85.28,22.19 -140.17,22.19zm613.07 0c-52.45,0 -97.17,-7.97 -134.7,-23.85 -37.26,-15.91 -65.85,-38.84 -85.46,-68.8 -19.66,-29.97 -29.59,-66 -29.59,-108.34l0 -402c0,-42.15 9.93,-78.39 29.59,-108.54 19.61,-30.13 48.2,-53.06 85.46,-68.77 37.53,-15.71 82.25,-23.68 134.7,-23.68 52.94,0 98.16,7.97 135.46,23.68 37.53,15.71 65.85,38.64 85.45,68.77 19.66,30.16 29.59,66.4 29.59,108.54l0 48.82 -161.55 0 0 -48.82c0,-17.38 -3.45,-32.17 -10.15,-44.55 -6.97,-12.59 -16.93,-22.02 -30.32,-28.47 -13.41,-6.48 -29.56,-9.81 -48.47,-9.81 -18.37,0 -34.04,3.32 -47.21,9.81 -13.18,6.45 -23.1,15.88 -30.3,28.47 -6.97,12.38 -10.44,27.17 -10.44,44.55l0 402c0,17.38 3.47,32.17 10.44,44.38 7.2,12.38 17.13,21.62 30.3,28.27 13.18,6.47 28.84,9.63 47.21,9.63 18.91,0 35.06,-3.15 48.47,-9.63 13.4,-6.65 23.35,-15.89 30.32,-28.27 6.7,-12.21 10.15,-27.2 10.15,-44.95l0 -48.25 161.55 0 0 48.25c0,42.33 -9.93,78.41 -29.59,108.73 -19.6,30.14 -47.92,53.07 -85.45,68.98 -37.31,15.88 -82.52,23.85 -135.46,23.85zm510.46 -8.14l-159.54 0 0 -787.7 159.54 0 0 787.7zm129.46 -787.7l159.53 0 0 787.7 -159.53 0 0 -787.7zm75.77 673.43l386.71 0 0 114.28 -386.71 0 0 -114.28zm0 -334.32l350.15 0 0 114.28 -350.15 0 0 -114.28zm0 -339.11l386.71 0 0 114.27 -386.71 0 0 -114.27zm487.86 0l131.21 0 269.39 564.52 -21.15 17.93 0 -582.44 148.37 0 0 787.15 -133.2 0 -267.16 -540.13 21.12 -17.92 0 558.04 -148.59 0 0 -787.15zm832.24 65.08l159.26 0 0 722.62 -159.26 0 0 -722.62zm-181.43 -65.08l522.13 0 0 113.35 -522.13 0 0 -113.35z"/>
   <path class="fil2" d="M1728.24 473.29l347.82 46.98m174.56 23.58l195.21 26.35m285.78 38.62l208.63 28.17m129.48 17.5l159.54 21.55m129.46 17.5l127.74 17.25m20.88 2.83l109.11 14.74m121.74 16.43l148.37 20.05m129.73 17.53l159.54 21.55m195.87 26.45l398.13 53.79m149.29 20.18l161.78 21.84m438.88 59.29l159.54 21.57m129.46 17.48l159.53 21.57m404.1 54.58l148.59 20.07m194.91 26.33l184.33 24.9m304.41 41.13l159.26 21.52m121.17 -771.34l-461.86 62.4m-122.98 16.61l-148.37 20.05m-188.8 25.5l-190.66 25.76m-404.1 54.58l-159.53 21.57m-129.46 17.47l-159.54 21.58m-438.88 59.29l-161.78 21.84m-216.52 29.27l-248.34 33.53m-278.43 37.63l-159.54 21.55m-129.73 17.52l-148.37 20.06m-6.3 0.84l-109.73 14.82m-114.81 15.51l-148.62 20.08m-129.46 17.5l-159.54 21.55m-129.48 17.5l-144.13 19.45m-397.6 53.72l-147.88 19.98m-175.69 23.75l-345.69 46.68"/>
  </g>
 </g>
</svg>
