<?xml version="1.0" encoding="UTF-8"?>
<!DOCTYPE svg PUBLIC "-//W3C//DTD SVG 1.1//EN" "http://www.w3.org/Graphics/SVG/1.1/DTD/svg11.dtd">
<!-- Creator: CorelDRAW -->
<svg xmlns="http://www.w3.org/2000/svg" xml:space="preserve" width="83.6734mm" height="19.4345mm" version="1.1" style="shape-rendering:geometricPrecision; text-rendering:geometricPrecision; image-rendering:optimizeQuality; fill-rule:evenodd; clip-rule:evenodd"
viewBox="0 0 58961.76 13694.82"
 xmlns:xlink="http://www.w3.org/1999/xlink"
 xmlns:xodm="http://www.corel.com/coreldraw/odm/2003">
 <defs>
  <style type="text/css">
   <![CDATA[
    .str0 {stroke:#DAD3CF;stroke-width:53.7;stroke-miterlimit:22.9256}
    .fil2 {fill:none;fill-rule:nonzero}
    .fil0 {fill:#DAD3CF}
    .fil1 {fill:#DAD3CF;fill-rule:nonzero}
   ]]>
  </style>
 </defs>
 <g id="Layer_x0020_1">
  <metadata id="CorelCorpID_0Corel-Layer"/>
  <g id="_3035448805072">
   <path class="fil0 str0" d="M26.85 12791.23l0 -3154.36 1191.03 0c209.43,0 369.46,10.15 480.23,30.09 155.1,25.58 285.04,74.91 389.89,146.78 105.07,72.79 189.48,174.12 253.54,304.06 63.77,129.94 95.27,273.2 95.27,429.49 0,267.28 -85.12,494.18 -256.36,679.23 -170.25,185.68 -479.24,278.41 -925.86,278.41l-809.17 0 0 1286.3 -418.57 0zm418.57 -1656.53l815.16 0c270.1,0 460.99,-49.82 574.87,-150.59 113.1,-100.56 169.75,-241.42 169.75,-424.28 0,-131.35 -33.19,-244.52 -100.06,-338.66 -66.66,-93.93 -154.89,-156.29 -263.47,-186.38 -70.47,-18.25 -200.41,-27.98 -389.19,-27.98l-807.05 0 0 1127.89zm4031.18 916.35l401.03 52.92c-62.36,232.61 -179.27,414.06 -349.58,542.59 -170.25,128.53 -387.71,193.08 -652.59,193.08 -333.45,0 -597.91,-102.74 -793.1,-308.36 -195.4,-204.85 -293.07,-493.48 -293.07,-864.13 0,-383.27 98.37,-681.34 295.96,-892.95 197.52,-212.25 453.88,-318.02 768.86,-318.02 304.7,0 553.51,103.66 746.8,311.39 193.01,207.74 290.04,499.96 290.04,876.82 0,22.76 -0.99,57.15 -2.4,102.67l-1702.75 0c14.66,250.44 85.12,442.74 212.95,575.78 127.12,132.83 286.45,199.7 476.71,199.7 141.57,0 262.77,-37.49 362.55,-112.39 100.56,-74.98 180.04,-194.49 238.6,-359.1zm-1268.75 -621.09l1273.26 0c-16.84,-192.3 -66.17,-336.27 -146.08,-432.59 -122.61,-148.9 -282.71,-223.87 -478.82,-223.87 -177.65,0 -326.82,59.54 -447.96,178.35 -120.29,119.09 -187.16,278.41 -200.41,478.12zm2155.22 1361.27l0 -2286.43 347.96 0 0 350.08c88.93,-162.21 170.95,-269.39 246.63,-320.9 75.61,-51.93 158.62,-77.8 248.96,-77.8 130.72,0 263.76,41.29 398.7,122.61l-138.04 357.62c-93.93,-52.85 -187.79,-79.2 -281.94,-79.2 -84.49,0 -160.1,25.65 -226.97,76.39 -66.66,50.52 -114.58,121.2 -143.05,211.33 -43.41,137.27 -64.69,287.86 -64.69,451.76l0 1194.55 -387.57 0zm1317.16 -682.75l383.27 -61.94c21.35,153.69 81.6,271.08 179.97,353.39 98.44,81.32 236.49,122.61 412.65,122.61 178.35,0 310.48,-36.08 397.29,-108.59 85.83,-72.16 129.24,-157.28 129.24,-254.95 0,-87.31 -38.9,-156.29 -116.2,-206.33 -54.33,-34.39 -186.45,-77.8 -396.3,-131.42 -283.63,-71.1 -479.52,-132.83 -589.81,-184.97 -109.36,-52.85 -192.3,-125.01 -248.75,-217.46 -56.73,-91.82 -85.19,-193.78 -85.19,-305.47 0,-101.97 23.47,-195.9 69.76,-282.71 46.93,-86.53 110,-158.62 190.19,-215.77 59.97,-44.11 142.27,-81.6 245.93,-112.39 104.08,-30.86 215.06,-46.3 334.15,-46.3 179.06,0 336.27,25.86 471.21,77.8 135.93,51.51 235.71,121.91 300.47,210.13 63.84,88.93 108.66,207.03 132.83,355.29l-378.97 52.85c-16.84,-118.81 -66.66,-212.03 -148.97,-278.91 -82.3,-66.87 -198.22,-99.85 -348.81,-99.85 -176.94,0 -304.06,29.46 -379.67,88.01 -75.47,58.84 -113.66,127.83 -113.66,206.33 0,50.03 15.43,95.55 47,135.86 31.5,41.08 80.61,75.68 148.19,102.95 38.9,14.45 152.07,47.71 341.55,99.15 273.2,72.58 464.09,132.76 572.68,179.06 108.66,46.23 193.78,114.51 255.44,202.73 62.57,88.72 93.44,199 93.44,331.12 0,128.53 -37.49,249.66 -113.1,363.54 -75.68,113.59 -184.27,201.82 -326.12,264.18 -142.55,62.36 -303.29,93.23 -482.34,93.23 -296.73,0 -523.64,-61.66 -679.23,-184.27 -155.59,-123.32 -254.74,-305.47 -298.14,-546.89zm2357.11 1559.5l0 -3163.17 352.4 0 0 300.26c83.01,-115.99 176.94,-203.51 282.01,-261.36 104.36,-58.06 231.2,-87.52 380.38,-87.52 195.4,0 367.13,50.03 516.31,150.59 148.9,99.85 261.29,241.7 337.68,423.57 75.68,182.86 113.87,382.56 113.87,600.73 0,232.89 -42,442.74 -125.71,630.11 -83.71,186.38 -205.62,329.64 -365.72,429.49 -159.11,99.15 -327.25,148.97 -503.69,148.97 -129.02,0 -245.22,-27.06 -347.19,-81.39 -102.95,-54.26 -186.38,-122.61 -252.55,-205.62l0 1115.34 -387.78 0zm352.4 -2006.04c0,292.86 59.54,509.61 177.86,649.77 118.81,140.37 262.77,210.84 431.61,210.84 171.94,0 318.79,-72.79 440.7,-218.16 122.61,-145.37 183.49,-369.95 183.49,-674.72 0,-290.75 -59.47,-508.2 -179.27,-652.87 -119.51,-144.67 -262.07,-216.54 -428.08,-216.54 -164.33,0 -309.7,77.09 -436.12,230.5 -126.84,154.18 -190.19,377.56 -190.19,671.19zm3657.43 389.12l401.03 52.92c-62.36,232.61 -179.27,414.06 -349.58,542.59 -170.25,128.53 -387.71,193.08 -652.66,193.08 -333.45,0 -597.84,-102.74 -793.03,-308.36 -195.4,-204.85 -293.14,-493.48 -293.14,-864.13 0,-383.27 98.44,-681.34 295.96,-892.95 197.59,-212.25 453.95,-318.02 768.86,-318.02 304.77,0 553.51,103.66 746.8,311.39 193.08,207.74 290.04,499.96 290.04,876.82 0,22.76 -0.92,57.15 -2.33,102.67l-1702.82 0c14.73,250.44 85.19,442.74 213.02,575.78 127.12,132.83 286.45,199.7 476.64,199.7 141.64,0 262.77,-37.49 362.62,-112.39 100.56,-74.98 180.04,-194.49 238.6,-359.1zm-1268.82 -621.09l1273.33 0c-16.84,-192.3 -66.17,-336.27 -146.08,-432.59 -122.61,-148.9 -282.71,-223.87 -478.82,-223.87 -177.65,0 -326.82,59.54 -448.03,178.35 -120.22,119.09 -187.09,278.41 -200.41,478.12zm3653.2 524.13l378.69 52.85c-41.72,260.66 -147.49,464.16 -318.51,611.65 -171.16,147.77 -381.79,221.05 -630.82,221.05 -312.1,0 -563.24,-102.04 -752.72,-306.18 -190.19,-204 -284.83,-496.37 -284.83,-876.74 0,-246.7 41.01,-461.77 122.61,-646.74 81.6,-184.27 205.62,-323.23 373.05,-415.05 166.72,-92.45 348.18,-138.75 544.78,-138.75 247.55,0 450.77,62.36 608.06,188.08 157.92,125.5 259.18,304.06 303.29,534.56l-374.46 57.15c-36.08,-153.41 -99.15,-268.69 -190.89,-346.48 -91.11,-77.09 -201.32,-115.99 -330.63,-115.99 -195.12,0 -353.81,69.76 -476.42,209.22 -121.91,140.37 -182.86,360.44 -182.86,663.09 0,306.88 58.84,529.27 176.24,668.02 118.31,138.96 271.79,208.72 460.29,208.72 152.77,0 279.89,-46.23 381.15,-139.45 102.18,-92.73 166.72,-235.71 193.99,-429zm1550.76 491.36l52.85 342.26c-108.59,22.76 -206.33,34.39 -291.45,34.39 -140.16,0 -249.03,-22.06 -326.82,-66.94 -77.09,-44.82 -131.35,-102.67 -162.92,-175.46 -31.57,-72.58 -46.93,-225.28 -46.93,-458.17l0 -1317.16 -286.52 0 0 -299.55 286.52 0 0 -565.56 387.71 -232.68 0 798.25 387.57 0 0 299.55 -387.57 0 0 1339.22c0,110.98 6.41,182.16 20.44,213.65 13.25,31.57 35.3,56.73 66.17,75.68 30.79,18.25 74.91,27.98 132.05,27.98 42.7,0 99.15,-5.21 168.91,-15.43zm382.49 -2367.96l0 -440.63 387.78 0 0 440.63 -387.78 0zm0 2713.74l0 -2286.43 387.78 0 0 2286.43 -387.78 0zm1603.68 0l-862.79 -2286.43 414.77 0 489.04 1369.38c52.85,147.49 102.18,300.89 146.99,460.29 34.39,-120.5 82.09,-265.17 144.46,-434.71l508.2 -1394.96 398 0 -865.61 2286.43 -373.05 0zm3137.52 -740.18l401.03 52.92c-62.36,232.61 -179.27,414.06 -349.58,542.59 -170.25,128.53 -387.71,193.08 -652.59,193.08 -333.45,0 -597.91,-102.74 -793.1,-308.36 -195.4,-204.85 -293.07,-493.48 -293.07,-864.13 0,-383.27 98.37,-681.34 295.96,-892.95 197.52,-212.25 453.88,-318.02 768.86,-318.02 304.7,0 553.51,103.66 746.8,311.39 193.01,207.74 290.04,499.96 290.04,876.82 0,22.76 -0.99,57.15 -2.4,102.67l-1702.75 0c14.66,250.44 85.12,442.74 212.95,575.78 127.12,132.83 286.45,199.7 476.71,199.7 141.57,0 262.77,-37.49 362.55,-112.39 100.56,-74.98 180.04,-194.49 238.6,-359.1zm-1268.75 -621.09l1273.26 0c-16.84,-192.3 -66.17,-336.27 -146.08,-432.59 -122.61,-148.9 -282.71,-223.87 -478.82,-223.87 -177.65,0 -326.82,59.54 -447.96,178.35 -120.29,119.09 -187.16,278.41 -200.41,478.12zm3423.05 1361.27l0 -3154.36 625.6 0 746.1 2232.8c69.06,207.95 118.81,363.54 150.59,466.91 35.87,-114.51 92.52,-283.35 168.91,-505.81l759.14 -2193.91 558.73 0 0 3154.36 -400.81 0 0 -2639.04 -920.86 2639.04 -375.94 0 -910.43 -2687.45 0 2687.45 -401.03 0zm5123.98 -286.45c-143.96,122.82 -282.64,208.65 -415.68,259.18 -132.83,50.74 -275.38,75.68 -428.08,75.68 -251.14,0 -444.22,-60.95 -579.38,-183.57 -134.94,-121.91 -202.52,-278.2 -202.52,-468.39 0,-111.69 25.58,-213.65 76.32,-306.18 51.51,-92.52 118.1,-166.02 200.41,-221.76 83.01,-55.95 175.53,-98.37 279.12,-127.12 76.39,-19.66 191.67,-38.9 345.07,-57.85 312.8,-36.71 544.07,-81.6 691.56,-133.04 1.69,-52.85 2.4,-86.53 2.4,-100.56 0,-157.21 -36.78,-267.98 -110.28,-332.74 -99.15,-87.24 -246.63,-130.64 -442.11,-130.64 -182.79,0 -317.73,32.49 -404.55,96.26 -87.31,63.84 -151.08,176.94 -193.08,339.86l-378.97 -52.64c34.67,-162.43 91.11,-293.85 170.53,-393.7 79.2,-99.85 193.78,-176.17 343.67,-230.5 148.9,-53.63 323.02,-80.9 519.83,-80.9 195.19,0 354.52,22.76 477.13,69.06 121.91,46.23 212.25,103.59 269.68,173.35 57.15,69.69 97.46,157.92 120.92,264.39 12.61,65.96 19.24,185.05 19.24,356l0 514.12c0,359.1 8.03,585.79 24.17,682.12 15.43,96.05 47.71,187.79 94.85,276.02l-405.54 0c-38.9,-81.6 -63.77,-176.94 -74.69,-286.45zm-30.79 -858.99c-141.14,57.15 -352.69,105.77 -634.41,145.37 -160.1,22.76 -273.2,48.34 -339.37,77.09 -66.17,28.68 -116.69,70.4 -152.7,124.73 -36.08,55.25 -54.33,116.2 -54.33,183.78 0,101.97 38.9,187.86 117.4,256.15 78.71,68.28 193.29,102.88 343.59,102.88 149.18,0 282.01,-32.49 398.91,-97.67 115.99,-64.76 201.82,-153.48 256.15,-265.87 42,-87.52 62.36,-215.77 62.36,-385.59l2.4 -140.86zm988.93 1145.43l0 -3154.36 387.71 0 0 1796.69 916.42 -928.75 500.88 0 -872.52 849.54 960.46 1436.88 -477.13 0 -759.35 -1168.19 -268.76 261.29 0 906.9 -387.71 0zm3761.01 -740.18l401.03 52.92c-62.36,232.61 -179.27,414.06 -349.51,542.59 -170.32,128.53 -387.78,193.08 -652.66,193.08 -333.45,0 -597.91,-102.74 -793.03,-308.36 -195.47,-204.85 -293.14,-493.48 -293.14,-864.13 0,-383.27 98.37,-681.34 295.96,-892.95 197.52,-212.25 453.88,-318.02 768.86,-318.02 304.77,0 553.51,103.66 746.8,311.39 193.01,207.74 290.04,499.96 290.04,876.82 0,22.76 -0.99,57.15 -2.4,102.67l-1702.75 0c14.73,250.44 85.12,442.74 212.95,575.78 127.12,132.83 286.52,199.7 476.71,199.7 141.57,0 262.77,-37.49 362.62,-112.39 100.56,-74.98 179.97,-194.49 238.53,-359.1zm-1268.75 -621.09l1273.26 0c-16.84,-192.3 -66.17,-336.27 -146.08,-432.59 -122.61,-148.9 -282.71,-223.87 -478.82,-223.87 -177.65,0 -326.82,59.54 -447.96,178.35 -120.29,119.09 -187.16,278.41 -200.41,478.12zm2005.41 678.52l383.2 -61.94c21.35,153.69 81.6,271.08 180.04,353.39 98.37,81.32 236.42,122.61 412.65,122.61 178.28,0 310.41,-36.08 397.22,-108.59 85.83,-72.16 129.24,-157.28 129.24,-254.95 0,-87.31 -38.9,-156.29 -116.2,-206.33 -54.33,-34.39 -186.38,-77.8 -396.3,-131.42 -283.63,-71.1 -479.52,-132.83 -589.81,-184.97 -109.29,-52.85 -192.3,-125.01 -248.75,-217.46 -56.73,-91.82 -85.19,-193.78 -85.19,-305.47 0,-101.97 23.54,-195.9 69.76,-282.71 46.93,-86.53 110.07,-158.62 190.19,-215.77 60.04,-44.11 142.27,-81.6 245.93,-112.39 104.15,-30.86 215.13,-46.3 334.15,-46.3 179.06,0 336.27,25.86 471.21,77.8 135.93,51.51 235.78,121.91 300.47,210.13 63.84,88.93 108.66,207.03 132.83,355.29l-378.97 52.85c-16.84,-118.81 -66.66,-212.03 -148.97,-278.91 -82.23,-66.87 -198.22,-99.85 -348.81,-99.85 -176.94,0 -304.06,29.46 -379.67,88.01 -75.47,58.84 -113.59,127.83 -113.59,206.33 0,50.03 15.36,95.55 46.93,135.86 31.57,41.08 80.61,75.68 148.19,102.95 38.9,14.45 152.07,47.71 341.55,99.15 273.2,72.58 464.09,132.76 572.68,179.06 108.66,46.23 193.78,114.51 255.44,202.73 62.64,88.72 93.44,199 93.44,331.12 0,128.53 -37.49,249.66 -113.1,363.54 -75.68,113.59 -184.27,201.82 -326.12,264.18 -142.55,62.36 -303.29,93.23 -482.34,93.23 -296.73,0 -523.64,-61.66 -679.23,-184.27 -155.59,-123.32 -254.74,-305.47 -298.07,-546.89zm3629.38 682.75l0 -3154.36 1191.03 0c209.36,0 369.46,10.15 480.23,30.09 155.1,25.58 285.04,74.91 389.89,146.78 105.07,72.79 189.48,174.12 253.47,304.06 63.84,129.94 95.34,273.2 95.34,429.49 0,267.28 -85.12,494.18 -256.36,679.23 -170.25,185.68 -479.31,278.41 -925.86,278.41l-809.17 0 0 1286.3 -418.57 0zm418.57 -1656.53l815.09 0c270.17,0 461.06,-49.82 574.87,-150.59 113.17,-100.56 169.82,-241.42 169.82,-424.28 0,-131.35 -33.19,-244.52 -100.06,-338.66 -66.66,-93.93 -154.89,-156.29 -263.47,-186.38 -70.47,-18.25 -200.41,-27.98 -389.19,-27.98l-807.05 0 0 1127.89zm4031.18 916.35l401.03 52.92c-62.36,232.61 -179.27,414.06 -349.58,542.59 -170.25,128.53 -387.71,193.08 -652.66,193.08 -333.45,0 -597.84,-102.74 -793.03,-308.36 -195.4,-204.85 -293.14,-493.48 -293.14,-864.13 0,-383.27 98.44,-681.34 296.03,-892.95 197.52,-212.25 453.88,-318.02 768.79,-318.02 304.77,0 553.59,103.66 746.8,311.39 193.08,207.74 290.04,499.96 290.04,876.82 0,22.76 -0.92,57.15 -2.33,102.67l-1702.75 0c14.66,250.44 85.12,442.74 212.95,575.78 127.12,132.83 286.45,199.7 476.64,199.7 141.64,0 262.77,-37.49 362.62,-112.39 100.56,-74.98 180.04,-194.49 238.6,-359.1zm-1268.82 -621.09l1273.33 0c-16.84,-192.3 -66.17,-336.27 -146.08,-432.59 -122.61,-148.9 -282.71,-223.87 -478.82,-223.87 -177.65,0 -326.82,59.54 -448.03,178.35 -120.22,119.09 -187.09,278.41 -200.41,478.12zm2155.29 1361.27l0 -2286.43 347.89 0 0 350.08c88.93,-162.21 171.02,-269.39 246.63,-320.9 75.68,-51.93 158.69,-77.8 249.03,-77.8 130.72,0 263.76,41.29 398.7,122.61l-138.04 357.62c-93.93,-52.85 -187.86,-79.2 -282.01,-79.2 -84.42,0 -160.03,25.65 -226.9,76.39 -66.66,50.52 -114.58,121.2 -143.05,211.33 -43.41,137.27 -64.76,287.86 -64.76,451.76l0 1194.55 -387.5 0zm2964.95 -837.14l378.69 52.85c-41.72,260.66 -147.49,464.16 -318.51,611.65 -171.16,147.77 -381.79,221.05 -630.82,221.05 -312.1,0 -563.24,-102.04 -752.72,-306.18 -190.19,-204 -284.83,-496.37 -284.83,-876.74 0,-246.7 41.01,-461.77 122.61,-646.74 81.6,-184.27 205.62,-323.23 373.05,-415.05 166.72,-92.45 348.18,-138.75 544.78,-138.75 247.55,0 450.77,62.36 608.06,188.08 157.92,125.5 259.18,304.06 303.29,534.56l-374.46 57.15c-36.01,-153.41 -99.15,-268.69 -190.89,-346.48 -91.11,-77.09 -201.32,-115.99 -330.63,-115.99 -195.12,0 -353.81,69.76 -476.42,209.22 -121.91,140.37 -182.86,360.44 -182.86,663.09 0,306.88 58.84,529.27 176.24,668.02 118.31,138.96 271.79,208.72 460.29,208.72 152.77,0 279.89,-46.23 381.15,-139.45 102.18,-92.73 166.72,-235.71 193.99,-429zm2268.81 96.96l401.03 52.92c-62.36,232.61 -179.27,414.06 -349.51,542.59 -170.32,128.53 -387.78,193.08 -652.66,193.08 -333.45,0 -597.91,-102.74 -793.03,-308.36 -195.47,-204.85 -293.14,-493.48 -293.14,-864.13 0,-383.27 98.37,-681.34 295.96,-892.95 197.52,-212.25 453.88,-318.02 768.86,-318.02 304.77,0 553.51,103.66 746.8,311.39 193.01,207.74 290.04,499.96 290.04,876.82 0,22.76 -0.99,57.15 -2.4,102.67l-1702.75 0c14.73,250.44 85.12,442.74 212.95,575.78 127.12,132.83 286.52,199.7 476.71,199.7 141.57,0 262.77,-37.49 362.62,-112.39 100.56,-74.98 179.97,-194.49 238.53,-359.1zm-1268.75 -621.09l1273.26 0c-16.84,-192.3 -66.17,-336.27 -146.08,-432.59 -122.61,-148.9 -282.71,-223.87 -478.82,-223.87 -177.65,0 -326.75,59.54 -447.96,178.35 -120.29,119.09 -187.16,278.41 -200.41,478.12zm2159.52 2238.02l0 -3163.17 352.4 0 0 300.26c83.01,-115.99 176.94,-203.51 282.01,-261.36 104.36,-58.06 231.2,-87.52 380.38,-87.52 195.4,0 367.13,50.03 516.31,150.59 148.9,99.85 261.36,241.7 337.68,423.57 75.68,182.86 113.87,382.56 113.87,600.73 0,232.89 -42,442.74 -125.71,630.11 -83.71,186.38 -205.62,329.64 -365.72,429.49 -159.11,99.15 -327.25,148.97 -503.69,148.97 -129.02,0 -245.22,-27.06 -347.19,-81.39 -102.95,-54.26 -186.38,-122.61 -252.55,-205.62l0 1115.34 -387.78 0zm352.4 -2006.04c0,292.86 59.54,509.61 177.86,649.77 118.81,140.37 262.77,210.84 431.68,210.84 171.94,0 318.72,-72.79 440.63,-218.16 122.61,-145.37 183.57,-369.95 183.57,-674.72 0,-290.75 -59.54,-508.2 -179.34,-652.87 -119.51,-144.67 -262.07,-216.54 -428.01,-216.54 -164.4,0 -309.77,77.09 -436.19,230.5 -126.84,154.18 -190.19,377.56 -190.19,671.19zm2939.3 783.52l52.92 342.26c-108.66,22.76 -206.33,34.39 -291.45,34.39 -140.16,0 -249.03,-22.06 -326.82,-66.94 -77.09,-44.82 -131.42,-102.67 -162.92,-175.46 -31.57,-72.58 -47,-225.28 -47,-458.17l0 -1317.16 -286.45 0 0 -299.55 286.45 0 0 -565.56 387.78 -232.68 0 798.25 387.5 0 0 299.55 -387.5 0 0 1339.22c0,110.98 6.41,182.16 20.36,213.65 13.32,31.57 35.37,56.73 66.17,75.68 30.86,18.25 74.98,27.98 132.12,27.98 42.7,0 99.15,-5.21 168.84,-15.43zm382.56 -2367.96l0 -440.63 387.71 0 0 440.63 -387.71 0zm0 2713.74l0 -2286.43 387.71 0 0 2286.43 -387.71 0zm833.34 -1143.32c0,-422.17 117.4,-734.97 353.11,-938.4 196.18,-168.91 436.12,-253.33 718.83,-253.33 313.79,0 570.64,102.95 770.27,308.57 199,204.63 298.85,489.04 298.85,850.88 0,293.85 -43.9,524.34 -132.12,692.55 -87.94,168.13 -216.47,298.78 -385.38,392.01 -168.13,93.16 -352.4,139.45 -551.61,139.45 -319.92,0 -578.39,-102.04 -775.98,-306.88 -197.52,-204.92 -295.96,-499.96 -295.96,-884.85zm396.52 0.7c0,292.44 63.84,511.09 191.67,655.76 128.53,145.37 289.27,218.16 483.75,218.16 192.59,0 352.69,-72.79 480.93,-218.87 127.83,-146.15 191.88,-368.54 191.88,-667.39 0,-281.94 -64.76,-495.66 -193.29,-640.33 -128.53,-145.37 -288.63,-218.16 -479.52,-218.16 -194.49,0 -355.22,72.09 -483.75,216.76 -127.83,144.67 -191.67,362.62 -191.67,654.07zm2199.12 1142.62l0 -2286.43 348.18 0 0 324.43c167.43,-248.96 409.55,-373.05 726.16,-373.05 138.04,0 264.18,24.95 379.46,74.27 115.49,49.04 202.03,114.51 259.18,194.42 57.43,80.19 97.74,175.53 120.5,285.81 14.02,71.88 21.35,197.52 21.35,376.57l0 1403.98 -387.78 0 0 -1389.25c0,-157.92 -14.66,-276.02 -44.82,-353.81 -30.09,-77.8 -83.71,-140.44 -160.03,-187.37 -76.39,-46.23 -166.51,-69.76 -269.46,-69.76 -164.33,0 -306.11,52.22 -425.9,157.28 -119.51,104.08 -179.06,303.08 -179.06,595.51l0 1247.4 -387.78 0z"/>
   <g>
    <path class="fil1 str0" d="M2710.85 7978.29c-553.09,0 -1027.33,-75.12 -1423.28,-225.07 -395.39,-149.74 -697.83,-365.79 -904.3,-649.07 -206.4,-281.8 -309.77,-621.73 -309.77,-1022.33l0 -4164.15c0,-398.63 103.37,-740.6 309.77,-1025.85 206.47,-283.49 508.91,-499.26 904.3,-645.54 395.95,-146.29 870.19,-219.43 1423.28,-219.43 555.49,0 1032.19,73.14 1425.4,219.43 393.27,146.29 693.25,362.06 902.11,645.54 208.65,285.25 314.7,627.22 314.7,1025.85l0 4164.15c0,400.6 -106.05,740.53 -314.7,1022.33 -208.86,283.28 -508.84,499.33 -902.11,649.07 -393.2,149.95 -869.91,225.07 -1425.4,225.07zm0 -1163.05c218.66,0 410.4,-31.15 567.75,-93.3 157.35,-62.29 277.64,-153.62 361.07,-272.42 81.25,-120.78 120.57,-265.38 120.57,-437.17l0 -4028.64c0,-168.42 -39.32,-312.73 -120.57,-431.82 -83.43,-120.5 -203.72,-210.06 -361.07,-274.19 -157.35,-62.08 -349.09,-93.23 -567.75,-93.23 -221.41,0 -410.47,31.15 -565.56,93.23 -156.86,64.12 -275.17,153.69 -356.21,274.19 -83.43,119.09 -122.75,263.4 -122.75,431.82l0 4028.64c0,171.8 39.32,316.39 122.75,437.17 81.04,118.81 199.35,210.13 356.21,272.42 155.1,62.15 344.16,93.3 565.56,93.3zm9238.45 -6707.92l1440.41 0 0 7790.43 -1425.47 0 0 -5669.11 115.42 343.95 -1656.46 3995.74 -887.39 0 -1654.2 -3889.68 150.23 -450 0 5669.11 -1462.53 0 0 -7790.43 1484.66 0 1921.98 4559.12 1973.35 -4559.12zm4298.88 7790.43l-1577.89 0 0 -7790.43 1577.89 0 0 7790.43zm1280.38 -7790.43l1297.99 0 2664.13 5583.21 -209.14 177.22 0 -5760.43 1467.4 0 0 7785.07 -1317.16 0 -2642.28 -5341.93 208.93 -177.22 0 5519.15 -1469.86 0 0 -7785.07zm8081.32 7790.43l-1577.89 0 0 -7790.43 1577.89 0 0 7790.43zm3757.84 80.54c-548.09,0 -1012.75,-73.14 -1401.09,-219.43 -385.66,-146.36 -680.5,-360.37 -881.96,-640.19 -201.53,-281.58 -302.72,-621.8 -302.72,-1020.43l0 -402.29 1570.77 -5.43 0 385.87c0,239.59 88.37,424.14 265.1,557.67 179.69,131.56 428.15,197.66 749.91,197.66 312.24,0 553.09,-66.1 724.89,-195.9 169.89,-129.66 255.79,-314.49 255.79,-554.01l0 -680.21c0,-168.42 -59.19,-311.04 -177.01,-429.85 -118.03,-117.04 -265.59,-215.77 -442.32,-296.24 -179.41,-80.54 -422.94,-175.53 -734.9,-287.22 -14.73,-3.45 -29.53,-7.12 -44.25,-12.75 -14.73,-5.43 -29.46,-10.78 -41.72,-14.52l-93.72 -31.15c-417.58,-149.95 -763.93,-299.98 -1041.78,-449.93 -275.45,-150.02 -508.63,-354.73 -698.11,-610.73 -189.27,-257.77 -285.04,-579.8 -285.04,-965.67l0 -427.87c0,-389.54 100.7,-722.42 299.98,-998.58 198.86,-277.85 491.43,-488.19 874.84,-632.58 383.48,-144.53 847.85,-217.67 1388.61,-217.67 533.43,0 988.01,73.14 1361.41,217.67 373.83,144.39 661.26,356.42 857.86,638.22 196.67,279.89 294.83,618.13 294.83,1015.07l0 422.17 -1577.89 11.06 0 -407.72c0,-241.56 -80.75,-427.87 -240.78,-559.65 -159.82,-129.87 -393.2,-195.69 -695.43,-195.69 -317.1,0 -560.63,62.15 -730.03,182.86 -169.61,120.78 -255.51,292.65 -255.51,513.77l0 504.96c0,169.82 56.44,316.18 169.61,438.87 112.96,120.57 255.3,219.5 427.59,296.31 171.87,76.6 410.47,169.82 712.63,275.88 44.46,14.73 86.18,29.46 125.43,45.94 41.72,16.42 85.9,30.93 135.23,45.66 12.05,7.33 29.74,12.75 46.93,18.11 14.45,5.71 34.11,13.04 53.98,20.15 407.72,146.29 734.68,283.56 985.33,415.33 250.86,129.87 462.19,314.42 636.74,555.77 177.01,241.49 262.91,554.22 262.91,936.43l0 680.21c0,398.63 -98.23,738.84 -297.51,1020.43 -198.86,279.82 -491.43,493.83 -872.16,640.19 -381.22,146.29 -843.41,219.43 -1386.43,219.43zm6063.37 0c-518.7,0 -961.02,-78.78 -1332.17,-235.92 -368.47,-157.35 -651.25,-384.11 -845.18,-680.43 -194.42,-296.31 -292.58,-652.73 -292.58,-1071.44l0 -3975.86c0,-416.81 98.16,-775.2 292.58,-1073.42 193.92,-298 476.71,-524.83 845.18,-680.21 371.15,-155.38 813.47,-234.16 1332.17,-234.16 523.57,0 970.82,78.78 1339.78,234.16 371.15,155.38 651.18,382.21 845.11,680.21 194.42,298.21 292.58,656.61 292.58,1073.42l0 482.84 -1597.69 0 0 -482.84c0,-171.87 -34.18,-318.16 -100.41,-440.63 -68.99,-124.44 -167.43,-217.74 -299.98,-281.58 -132.55,-64.05 -292.37,-96.96 -479.38,-96.96 -181.66,0 -336.55,32.91 -466.91,96.96 -130.36,63.84 -228.52,157.14 -299.69,281.58 -68.99,122.47 -103.37,268.76 -103.37,440.63l0 3975.86c0,171.8 34.39,318.09 103.37,438.87 71.17,122.47 169.33,213.8 299.69,279.61 130.36,64.05 285.25,95.2 466.91,95.2 187.02,0 346.84,-31.15 479.38,-95.2 132.55,-65.82 230.99,-157.14 299.98,-279.61 66.24,-120.78 100.41,-269.04 100.41,-444.5l0 -477.2 1597.69 0 0 477.2c0,418.71 -98.16,775.41 -292.58,1075.39 -193.92,298 -473.96,524.76 -845.11,682.12 -368.96,157.14 -816.21,235.92 -1339.78,235.92zm5048.51 -80.54l-1577.82 0 0 -7790.43 1577.82 0 0 7790.43zm1280.38 -7790.43l1577.89 0 0 7790.43 -1577.89 0 0 -7790.43zm749.41 6660.29l3824.64 0 0 1130.14 -3824.64 0 0 -1130.14zm0 -3306.43l3463.08 0 0 1130.14 -3463.08 0 0 -1130.14zm0 -3353.86l3824.64 0 0 1130.14 -3824.64 0 0 -1130.14zm4824.99 0l1297.78 0 2664.27 5583.21 -209.14 177.22 0 -5760.43 1467.47 0 0 7785.07 -1317.44 0 -2642.21 -5341.93 208.86 -177.22 0 5519.15 -1469.58 0 0 -7785.07zm8230.99 643.64l1575.21 0 0 7146.79 -1575.21 0 0 -7146.79zm-1794.36 -643.64l5163.93 0 0 1121.05 -5163.93 0 0 -1121.05z"/>
    <path class="fil1 str0" d="M2710.85 7978.29c-553.09,0 -1027.33,-75.12 -1423.28,-225.07 -395.39,-149.74 -697.83,-365.79 -904.3,-649.07 -206.4,-281.8 -309.77,-621.73 -309.77,-1022.33l0 -4164.15c0,-398.63 103.37,-740.6 309.77,-1025.85 206.47,-283.49 508.91,-499.26 904.3,-645.54 395.95,-146.29 870.19,-219.43 1423.28,-219.43 555.49,0 1032.19,73.14 1425.4,219.43 393.27,146.29 693.25,362.06 902.11,645.54 208.65,285.25 314.7,627.22 314.7,1025.85l0 4164.15c0,400.6 -106.05,740.53 -314.7,1022.33 -208.86,283.28 -508.84,499.33 -902.11,649.07 -393.2,149.95 -869.91,225.07 -1425.4,225.07zm0 -1163.05c218.66,0 410.4,-31.15 567.75,-93.3 157.35,-62.29 277.64,-153.62 361.07,-272.42 81.25,-120.78 120.57,-265.38 120.57,-437.17l0 -4028.64c0,-168.42 -39.32,-312.73 -120.57,-431.82 -83.43,-120.5 -203.72,-210.06 -361.07,-274.19 -157.35,-62.08 -349.09,-93.23 -567.75,-93.23 -221.41,0 -410.47,31.15 -565.56,93.23 -156.86,64.12 -275.17,153.69 -356.21,274.19 -83.43,119.09 -122.75,263.4 -122.75,431.82l0 4028.64c0,171.8 39.32,316.39 122.75,437.17 81.04,118.81 199.35,210.13 356.21,272.42 155.1,62.15 344.16,93.3 565.56,93.3zm9238.45 -6707.92l1440.41 0 0 7790.43 -1425.47 0 0 -5669.11 115.42 343.95 -1656.46 3995.74 -887.39 0 -1654.2 -3889.68 150.23 -450 0 5669.11 -1462.53 0 0 -7790.43 1484.66 0 1921.98 4559.12 1973.35 -4559.12zm4298.88 7790.43l-1577.89 0 0 -7790.43 1577.89 0 0 7790.43zm1280.38 -7790.43l1297.99 0 2664.13 5583.21 -209.14 177.22 0 -5760.43 1467.4 0 0 7785.07 -1317.16 0 -2642.28 -5341.93 208.93 -177.22 0 5519.15 -1469.86 0 0 -7785.07zm8081.32 7790.43l-1577.89 0 0 -7790.43 1577.89 0 0 7790.43zm3757.84 80.54c-548.09,0 -1012.75,-73.14 -1401.09,-219.43 -385.66,-146.36 -680.5,-360.37 -881.96,-640.19 -201.53,-281.58 -302.72,-621.8 -302.72,-1020.43l0 -402.29 1570.77 -5.43 0 385.87c0,239.59 88.37,424.14 265.1,557.67 179.69,131.56 428.15,197.66 749.91,197.66 312.24,0 553.09,-66.1 724.89,-195.9 169.89,-129.66 255.79,-314.49 255.79,-554.01l0 -680.21c0,-168.42 -59.19,-311.04 -177.01,-429.85 -118.03,-117.04 -265.59,-215.77 -442.32,-296.24 -179.41,-80.54 -422.94,-175.53 -734.9,-287.22 -14.73,-3.45 -29.53,-7.12 -44.25,-12.75 -14.73,-5.43 -29.46,-10.78 -41.72,-14.52l-93.72 -31.15c-417.58,-149.95 -763.93,-299.98 -1041.78,-449.93 -275.45,-150.02 -508.63,-354.73 -698.11,-610.73 -189.27,-257.77 -285.04,-579.8 -285.04,-965.67l0 -427.87c0,-389.54 100.7,-722.42 299.98,-998.58 198.86,-277.85 491.43,-488.19 874.84,-632.58 383.48,-144.53 847.85,-217.67 1388.61,-217.67 533.43,0 988.01,73.14 1361.41,217.67 373.83,144.39 661.26,356.42 857.86,638.22 196.67,279.89 294.83,618.13 294.83,1015.07l0 422.17 -1577.89 11.06 0 -407.72c0,-241.56 -80.75,-427.87 -240.78,-559.65 -159.82,-129.87 -393.2,-195.69 -695.43,-195.69 -317.1,0 -560.63,62.15 -730.03,182.86 -169.61,120.78 -255.51,292.65 -255.51,513.77l0 504.96c0,169.82 56.44,316.18 169.61,438.87 112.96,120.57 255.3,219.5 427.59,296.31 171.87,76.6 410.47,169.82 712.63,275.88 44.46,14.73 86.18,29.46 125.43,45.94 41.72,16.42 85.9,30.93 135.23,45.66 12.05,7.33 29.74,12.75 46.93,18.11 14.45,5.71 34.11,13.04 53.98,20.15 407.72,146.29 734.68,283.56 985.33,415.33 250.86,129.87 462.19,314.42 636.74,555.77 177.01,241.49 262.91,554.22 262.91,936.43l0 680.21c0,398.63 -98.23,738.84 -297.51,1020.43 -198.86,279.82 -491.43,493.83 -872.16,640.19 -381.22,146.29 -843.41,219.43 -1386.43,219.43zm6063.37 0c-518.7,0 -961.02,-78.78 -1332.17,-235.92 -368.47,-157.35 -651.25,-384.11 -845.18,-680.43 -194.42,-296.31 -292.58,-652.73 -292.58,-1071.44l0 -3975.86c0,-416.81 98.16,-775.2 292.58,-1073.42 193.92,-298 476.71,-524.83 845.18,-680.21 371.15,-155.38 813.47,-234.16 1332.17,-234.16 523.57,0 970.82,78.78 1339.78,234.16 371.15,155.38 651.18,382.21 845.11,680.21 194.42,298.21 292.58,656.61 292.58,1073.42l0 482.84 -1597.69 0 0 -482.84c0,-171.87 -34.18,-318.16 -100.41,-440.63 -68.99,-124.44 -167.43,-217.74 -299.98,-281.58 -132.55,-64.05 -292.37,-96.96 -479.38,-96.96 -181.66,0 -336.55,32.91 -466.91,96.96 -130.36,63.84 -228.52,157.14 -299.69,281.58 -68.99,122.47 -103.37,268.76 -103.37,440.63l0 3975.86c0,171.8 34.39,318.09 103.37,438.87 71.17,122.47 169.33,213.8 299.69,279.61 130.36,64.05 285.25,95.2 466.91,95.2 187.02,0 346.84,-31.15 479.38,-95.2 132.55,-65.82 230.99,-157.14 299.98,-279.61 66.24,-120.78 100.41,-269.04 100.41,-444.5l0 -477.2 1597.69 0 0 477.2c0,418.71 -98.16,775.41 -292.58,1075.39 -193.92,298 -473.96,524.76 -845.11,682.12 -368.96,157.14 -816.21,235.92 -1339.78,235.92zm5048.51 -80.54l-1577.82 0 0 -7790.43 1577.82 0 0 7790.43zm1280.38 -7790.43l1577.89 0 0 7790.43 -1577.89 0 0 -7790.43zm749.41 6660.29l3824.64 0 0 1130.14 -3824.64 0 0 -1130.14zm0 -3306.43l3463.08 0 0 1130.14 -3463.08 0 0 -1130.14zm0 -3353.86l3824.64 0 0 1130.14 -3824.64 0 0 -1130.14zm4824.99 0l1297.78 0 2664.27 5583.21 -209.14 177.22 0 -5760.43 1467.47 0 0 7785.07 -1317.44 0 -2642.21 -5341.93 208.86 -177.22 0 5519.15 -1469.58 0 0 -7785.07zm8230.99 643.64l1575.21 0 0 7146.79 -1575.21 0 0 -7146.79zm-1794.36 -643.64l5163.93 0 0 1121.05 -5163.93 0 0 -1121.05z"/>
    <path class="fil2 str0" d="M1402.99 206.47l3439.97 464.73m1726.36 233.17l1930.64 260.66m2826.34 382l2063.4 278.62m1280.59 173l1577.89 213.09m1280.38 173.07l1263.39 170.6m206.47 27.98l1079.05 145.8m1204.06 162.5l1467.4 198.36m1283.06 173.28l1577.89 213.09m1937.2 261.64l3937.6 531.95m1476.49 199.56l1599.94 216.05m4340.67 586.42l1577.82 213.3m1280.38 172.78l1577.89 213.3m3996.51 539.77l1469.58 198.57m1927.68 260.44l1823.11 246.21m3010.61 406.8l1575.21 212.81m1198.35 -7628.71l-4567.92 617.15m-1216.25 164.19l-1467.47 198.36m-1867.22 252.06l-1885.69 254.81m-3996.51 539.77l-1577.89 213.3m-1280.38 172.85l-1577.82 213.3m-4340.67 586.42l-1599.94 215.98m-2141.48 289.41l-2456.18 331.69m-2753.62 372.13l-1577.89 213.02m-1283.06 173.35l-1467.4 198.29m-62.36 8.39l-1085.26 146.5m-1135.5 153.41l-1469.86 198.65m-1280.38 173l-1577.89 213.09m-1280.59 173.07l-1425.47 192.44m-3932.39 531.18l-1462.53 197.59m-1737.63 234.94l-3418.9 461.77"/>
   </g>
  </g>
 </g>
</svg>
